<svg width="24" height="24" viewBox="0 0 24 24" fill="none" xmlns="http://www.w3.org/2000/svg">
<path fill-rule="evenodd" clip-rule="evenodd" d="M4.11797 6.20005H20.118C20.4362 6.20005 20.7415 6.07362 20.9665 5.84858C21.1915 5.62353 21.318 5.31831 21.318 5.00005C21.318 4.68179 21.1915 4.37656 20.9665 4.15152C20.7415 3.92648 20.4362 3.80005 20.118 3.80005H4.11797C3.79971 3.80005 3.49448 3.92648 3.26944 4.15152C3.0444 4.37656 2.91797 4.68179 2.91797 5.00005C2.91797 5.31831 3.0444 5.62353 3.26944 5.84858C3.49448 6.07362 3.79971 6.20005 4.11797 6.20005M20.118 10.8H4.11797C3.79971 10.8 3.49448 10.9265 3.26944 11.1515C3.0444 11.3766 2.91797 11.6818 2.91797 12C2.91797 12.3183 3.0444 12.6235 3.26944 12.8486C3.49448 13.0736 3.79971 13.2 4.11797 13.2H20.118C20.4362 13.2 20.7415 13.0736 20.9665 12.8486C21.1915 12.6235 21.318 12.3183 21.318 12C21.318 11.6818 21.1915 11.3766 20.9665 11.1515C20.7415 10.9265 20.4362 10.8 20.118 10.8ZM20.118 17.8H4.11797C3.96038 17.8 3.80434 17.8311 3.65875 17.8914C3.51316 17.9517 3.38087 18.0401 3.26944 18.1515C3.15801 18.263 3.06962 18.3952 3.00931 18.5408C2.94901 18.6864 2.91797 18.8425 2.91797 19C2.91797 19.1576 2.94901 19.3137 3.00931 19.4593C3.06962 19.6049 3.15801 19.7371 3.26944 19.8486C3.38087 19.96 3.51316 20.0484 3.65875 20.1087C3.80434 20.169 3.96038 20.2001 4.11797 20.2001H20.118C20.2756 20.2001 20.4316 20.169 20.5772 20.1087C20.7228 20.0484 20.8551 19.96 20.9665 19.8486C21.0779 19.7371 21.1663 19.6049 21.2266 19.4593C21.2869 19.3137 21.318 19.1576 21.318 19C21.318 18.8425 21.2869 18.6864 21.2266 18.5408C21.1663 18.3952 21.0779 18.263 20.9665 18.1515C20.8551 18.0401 20.7228 17.9517 20.5772 17.8914C20.4316 17.8311 20.2756 17.8 20.118 17.8" fill="#8B95A1"/>
</svg>
