<svg id="레이어_1" data-name="레이어 1" xmlns="http://www.w3.org/2000/svg" viewBox="0 0 473.08 72"><defs><style>.cls-1{fill:#3ea2ff;}.cls-2{fill:#fff;}</style></defs><rect class="cls-1" width="75" height="72" rx="9.09"/><path class="cls-2" d="M68.3,44.55a1,1,0,0,0-.6-.94l-.06,0-.1,0a1.26,1.26,0,0,0-.28,0,1.35,1.35,0,0,0-.28,0l0,0-.19.08-.09,0A6.88,6.88,0,0,1,63.17,45a2.92,2.92,0,0,1-2.78-2.5,3.34,3.34,0,0,1-.08-.35,4,4,0,0,1-.06-.44c-.39-2.29.34-5.15,1-7.14a.68.68,0,0,0-1.08-.75L49.75,42.31h0c-2.47,2-4.2,2.66-5.43,2.67a2.94,2.94,0,0,1-2.79-2.5c0-.13-.06-.25-.08-.36a3.66,3.66,0,0,1-.06-.43,15.92,15.92,0,0,1,1-7.14.68.68,0,0,0-1.08-.75L30.84,42.37c-7.73,6.11-8.2-.75-8.2-.75s.09-6.43,4.79-15.33c3.78-7.17-10.4-7-15.65-6.24a1.83,1.83,0,0,0-.78.33A1.65,1.65,0,0,0,11.1,23l2.7,2s-3.06,11.58-2.32,21.58c0,.23,0,.45,0,.67s0,.15,0,.23v0a6.89,6.89,0,0,0,1.19,3.09c5,7,15.08-2.66,17.52-5.16v.1a8.06,8.06,0,0,0,0,1.3c0,.08,0,.15,0,.22l.06.54c0,.25.09.5.15.74s.07.25.11.38.06.22.1.33.11.29.17.43l.12.26a3,3,0,0,0,.21.4,3.45,3.45,0,0,0,.2.32,4,4,0,0,0,.22.34l.08.1c.13.17.27.33.4.48s.15.16.23.23l.08.07c5.3,5,14.63-4.11,16.74-6.29l0,.14a9.4,9.4,0,0,0,0,1.3,1.5,1.5,0,0,0,0,.22,5,5,0,0,0,.06.54,6,6,0,0,0,.14.74c0,.13.07.26.11.38s.06.22.1.33a3.25,3.25,0,0,0,.18.43,2,2,0,0,0,.11.26l.21.4c.06.11.13.22.2.33a3.29,3.29,0,0,0,.23.33l.07.1c.13.17.27.33.41.48l.22.23.08.08c5.41,5.07,15-4.48,16.85-6.42h0A1,1,0,0,0,68.3,44.55Z"/><path class="cls-1" d="M108.7,55.82,100,16.61h8.34l5.33,26.55,7.61-26.55H129l7.61,26.49,5.33-26.49H150l-8.62,39.21h-8.57l-7.73-27.34-7.85,27.34Z"/><path class="cls-1" d="M156.37,55.82V16.61h30.36v7.06H164.49v9H183v6.83H164.49v9.3h22.24v7.06Z"/><path class="cls-1" d="M193.9,55.82V16.61h18.43A16.78,16.78,0,0,1,219.27,18a11,11,0,0,1,4.65,3.79,9.65,9.65,0,0,1,1.68,5.62,8.92,8.92,0,0,1-1.32,4.74,10.26,10.26,0,0,1-3.55,3.5,11.58,11.58,0,0,1,4.53,3.64,8.6,8.6,0,0,1,1.68,5.21,10.5,10.5,0,0,1-1.7,5.94,11.31,11.31,0,0,1-4.82,4,17.1,17.1,0,0,1-7.2,1.43ZM202,32.63h9.8A6.37,6.37,0,0,0,216,31.37,4.14,4.14,0,0,0,217.53,28,4.14,4.14,0,0,0,216,24.59a6.37,6.37,0,0,0-4.17-1.26H202Zm0,16.47H212.6a6.91,6.91,0,0,0,4.49-1.37,4.51,4.51,0,0,0,1.68-3.67,4.57,4.57,0,0,0-1.68-3.73A6.91,6.91,0,0,0,212.6,39H202Z"/><path class="cls-1" d="M261,56.16a25.37,25.37,0,0,1-9.3-1.76,25.69,25.69,0,0,1-8.07-5l4.65-5.83a24.82,24.82,0,0,0,6.58,4.37,16.92,16.92,0,0,0,6.7,1.35,13.83,13.83,0,0,0,4.26-.59A6.13,6.13,0,0,0,268.54,47a3.9,3.9,0,0,0,1-2.63,3.66,3.66,0,0,0-1.46-3.11,12.1,12.1,0,0,0-5-1.71l-7.79-1.35a13.35,13.35,0,0,1-7.59-3.52,9.57,9.57,0,0,1-2.6-6.95A10.77,10.77,0,0,1,247,21.38a11.9,11.9,0,0,1,5.32-4.12,21.46,21.46,0,0,1,8.21-1.42,26.59,26.59,0,0,1,8.6,1.45,25.85,25.85,0,0,1,7.59,4l-4.37,6.05q-6.17-4.7-12.38-4.7a11.77,11.77,0,0,0-3.81.56,5.77,5.77,0,0,0-2.49,1.54,3.38,3.38,0,0,0-.87,2.32,3.29,3.29,0,0,0,1.29,2.78,10.24,10.24,0,0,0,4.31,1.48l7.4,1.23q5.88,1,8.79,3.73a9.63,9.63,0,0,1,2.91,7.31,11.18,11.18,0,0,1-2,6.64,12.89,12.89,0,0,1-5.74,4.36A22.83,22.83,0,0,1,261,56.16Z"/><path class="cls-1" d="M300.44,56.16A18.94,18.94,0,0,1,291.22,54a14.82,14.82,0,0,1-6-6.08,19.23,19.23,0,0,1-2.13-9.27V16.4h8.13V38.69A11.61,11.61,0,0,0,292.34,44a8.23,8.23,0,0,0,3.25,3.48,9.72,9.72,0,0,0,4.9,1.2,9.57,9.57,0,0,0,4.88-1.2A8.29,8.29,0,0,0,308.59,44a11.61,11.61,0,0,0,1.15-5.29V16.4h8.06V38.69a19.09,19.09,0,0,1-2.13,9.21,14.89,14.89,0,0,1-6,6.11A18.66,18.66,0,0,1,300.44,56.16Z"/><path class="cls-1" d="M325.7,55.6V16.4h19.16a15.38,15.38,0,0,1,7,1.54,11.43,11.43,0,0,1,6.47,10.61,10.91,10.91,0,0,1-2.08,6.61,12.51,12.51,0,0,1-5.54,4.26l8.68,16.18h-9.07l-7.68-15h-8.85v15Zm8.12-21.67h10.31a6.44,6.44,0,0,0,4.4-1.46,4.84,4.84,0,0,0,1.65-3.81,4.84,4.84,0,0,0-1.65-3.81,6.43,6.43,0,0,0-4.4-1.45H333.82Z"/><path class="cls-1" d="M365.13,55.6V16.4h30.31v7.05H373.26v9.24h18.43v6.84H373.26V55.6Z"/><path class="cls-1" d="M402.33,55.6V16.4h30.36v7.05H410.45v9h18.49v6.83H410.45v9.3h22.24V55.6Z"/><path class="cls-1" d="M439.86,55.6V16.4H459a15.35,15.35,0,0,1,7,1.54,11.57,11.57,0,0,1,4.76,4.28,11.72,11.72,0,0,1,1.71,6.33,11,11,0,0,1-2.07,6.61,12.48,12.48,0,0,1-5.55,4.26l8.69,16.18H464.5l-7.67-15H448v15ZM448,33.93h10.3a6.42,6.42,0,0,0,4.4-1.46,4.84,4.84,0,0,0,1.65-3.81,4.84,4.84,0,0,0-1.65-3.81,6.41,6.41,0,0,0-4.4-1.45H448Z"/></svg>