<svg width="16" height="16" viewBox="0 0 16 16" fill="none" xmlns="http://www.w3.org/2000/svg">
<g clip-path="url(#clip0_180_7215)">
<path fill-rule="evenodd" clip-rule="evenodd" d="M8.01465 6.15039C6.957 6.15039 6.09766 7.01706 6.09766 8.08372C6.09766 9.15039 6.957 10.0171 8.01465 10.0171C9.0723 10.0171 9.93165 9.15039 9.93165 8.08372C9.93165 7.01706 9.0723 6.15039 8.01465 6.15039Z" fill="#8B8B8B"/>
<path fill-rule="evenodd" clip-rule="evenodd" d="M8.01534 11.4169C6.16445 11.4169 4.71018 9.88353 4.71018 8.08353C4.71018 6.28353 6.23055 4.7502 8.01534 4.7502C9.80013 4.7502 11.3205 6.28353 11.3205 8.08353C11.3205 9.88353 9.86624 11.4169 8.01534 11.4169ZM15.2867 7.21686C13.568 4.5502 10.8578 2.9502 8.01534 2.9502C5.1729 2.9502 2.46267 4.5502 0.743981 7.21686C0.413465 7.7502 0.413465 8.41686 0.743981 8.9502C2.46267 11.6169 5.1729 13.2169 8.01534 13.2169C10.8578 13.2169 13.568 11.6169 15.2867 8.9502C15.6833 8.41686 15.6833 7.7502 15.2867 7.21686Z" fill="#8B8B8B"/>
</g>
<defs>
<clipPath id="clip0_180_7215">
<rect width="15.8648" height="16" fill="white"/>
</clipPath>
</defs>
</svg>
