<svg width="18" height="17" viewBox="0 0 18 17" fill="none" xmlns="http://www.w3.org/2000/svg">
<mask id="path-1-inside-1_524_1978" fill="white">
<path fill-rule="evenodd" clip-rule="evenodd" d="M16.5575 5.83738L9.51833 0.239876C9.37106 0.122507 9.18832 0.0585938 9 0.0585938C8.81168 0.0585938 8.62894 0.122507 8.48167 0.239876L1.44167 5.83738C1.24546 5.99344 1.08699 6.19176 0.978053 6.41756C0.869119 6.64337 0.81253 6.89084 0.8125 7.14154V14.9899C0.8125 15.5203 1.02321 16.029 1.39829 16.4041C1.77336 16.7792 2.28207 16.9899 2.8125 16.9899H7.33333V13.0299C7.33333 12.8089 7.42113 12.5969 7.57741 12.4406C7.73369 12.2843 7.94565 12.1965 8.16667 12.1965H9.83333C10.0543 12.1965 10.2663 12.2843 10.4226 12.4406C10.5789 12.5969 10.6667 12.8089 10.6667 13.0299V16.9899H15.1867C15.7171 16.9899 16.2258 16.7792 16.6009 16.4041C16.976 16.029 17.1867 15.5203 17.1867 14.9899V7.14238C17.1866 6.89167 17.13 6.6442 17.0211 6.4184C16.9122 6.19259 16.7537 5.99427 16.5575 5.83821"/>
</mask>
<path d="M9.51833 0.239876L8.89509 1.0219L8.89593 1.02258L9.51833 0.239876ZM9 0.0585938V-0.941406V0.0585938ZM8.48167 0.239876L9.10402 1.02261L9.10491 1.0219L8.48167 0.239876ZM1.44167 5.83738L0.819313 5.05464L0.819167 5.05476L1.44167 5.83738ZM0.8125 7.14154L-0.1875 7.14142V7.14154H0.8125ZM7.33333 16.9899V17.9899H8.33333V16.9899H7.33333ZM10.6667 16.9899H9.66667V17.9899H10.6667V16.9899ZM15.1867 16.9899V17.9899V16.9899ZM17.1867 7.14238H18.1867V7.14226L17.1867 7.14238ZM17.1799 5.05468L10.1407 -0.542825L8.89593 1.02258L15.9351 6.62008L17.1799 5.05468ZM10.1416 -0.54215C9.81723 -0.800644 9.41475 -0.941406 9 -0.941406V1.05859C8.96188 1.05859 8.92489 1.04566 8.89509 1.0219L10.1416 -0.54215ZM9 -0.941406C8.58524 -0.941406 8.18277 -0.800644 7.85842 -0.54215L9.10491 1.0219C9.0751 1.04566 9.03812 1.05859 9 1.05859V-0.941406ZM7.85931 -0.542861L0.819313 5.05464L2.06402 6.62011L9.10402 1.02261L7.85931 -0.542861ZM0.819167 5.05476C0.505234 5.30446 0.251679 5.62177 0.0773849 5.98306L1.87872 6.85207C1.92229 6.76175 1.98568 6.68242 2.06417 6.62L0.819167 5.05476ZM0.0773849 5.98306C-0.0969092 6.34434 -0.187452 6.74029 -0.1875 7.14142L1.8125 7.14166C1.81251 7.04138 1.83515 6.94239 1.87872 6.85207L0.0773849 5.98306ZM-0.1875 7.14154V14.9899H1.8125V7.14154H-0.1875ZM-0.1875 14.9899C-0.1875 15.7855 0.128571 16.5486 0.69118 17.1112L2.10539 15.697C1.91786 15.5094 1.8125 15.2551 1.8125 14.9899H-0.1875ZM0.69118 17.1112C1.25379 17.6738 2.01685 17.9899 2.8125 17.9899V15.9899C2.54728 15.9899 2.29293 15.8845 2.10539 15.697L0.69118 17.1112ZM2.8125 17.9899H7.33333V15.9899H2.8125V17.9899ZM8.33333 16.9899V13.0299H6.33333V16.9899H8.33333ZM8.33333 13.0299C8.33333 13.0741 8.31577 13.1165 8.28452 13.1477L6.8703 11.7335C6.52649 12.0773 6.33333 12.5436 6.33333 13.0299H8.33333ZM8.28452 13.1477C8.25326 13.179 8.21087 13.1965 8.16667 13.1965V11.1965C7.68044 11.1965 7.21412 11.3897 6.8703 11.7335L8.28452 13.1477ZM8.16667 13.1965H9.83333V11.1965H8.16667V13.1965ZM9.83333 13.1965C9.78913 13.1965 9.74674 13.179 9.71548 13.1477L11.1297 11.7335C10.7859 11.3897 10.3196 11.1965 9.83333 11.1965V13.1965ZM9.71548 13.1477C9.68423 13.1165 9.66667 13.0741 9.66667 13.0299H11.6667C11.6667 12.5436 11.4735 12.0773 11.1297 11.7335L9.71548 13.1477ZM9.66667 13.0299V16.9899H11.6667V13.0299H9.66667ZM10.6667 17.9899H15.1867V15.9899H10.6667V17.9899ZM15.1867 17.9899C15.9823 17.9899 16.7454 17.6738 17.308 17.1112L15.8938 15.697C15.7062 15.8845 15.4519 15.9899 15.1867 15.9899V17.9899ZM17.308 17.1112C17.8706 16.5486 18.1867 15.7855 18.1867 14.9899H16.1867C16.1867 15.2551 16.0813 15.5094 15.8938 15.697L17.308 17.1112ZM18.1867 14.9899V7.14238H16.1867V14.9899H18.1867ZM18.1867 7.14226C18.1866 6.74113 18.0961 6.34517 17.9218 5.98389L16.1204 6.8529C16.164 6.94322 16.1867 7.04221 16.1867 7.1425L18.1867 7.14226ZM17.9218 5.98389C17.7475 5.6226 17.4939 5.30529 17.18 5.05559L15.935 6.62083C16.0135 6.68325 16.0769 6.76258 16.1204 6.8529L17.9218 5.98389Z" fill="#8B8B8B" mask="url(#path-1-inside-1_524_1978)"/>
</svg>
