<svg width="14" height="14" viewBox="0 0 14 14" fill="none" xmlns="http://www.w3.org/2000/svg">
<rect width="14" height="14" rx="4" fill="white"/>
<path fill-rule="evenodd" clip-rule="evenodd" d="M11.8846 6.55801L11.0358 5.39967C10.9894 5.3363 10.9287 5.28475 10.8586 5.24922C10.7885 5.21369 10.711 5.19518 10.6325 5.19518C10.5539 5.19518 10.4764 5.21369 10.4064 5.24922C10.3363 5.28475 10.2756 5.3363 10.2291 5.39967L9.38039 6.55801C9.13872 6.88842 9.37456 7.35342 9.78372 7.35342H10.1504C10.0954 7.84308 9.92616 8.31297 9.65619 8.72516C9.38622 9.13735 9.02313 9.4803 8.59623 9.72634C7.63748 10.2822 6.40873 10.2822 5.44914 9.72634C5.34401 9.66673 5.21959 9.65106 5.10296 9.68273C4.98633 9.7144 4.88693 9.79085 4.82639 9.89545C4.76585 10 4.74907 10.1243 4.77971 10.2412C4.81035 10.3581 4.88592 10.4582 4.98998 10.5197C5.60789 10.8776 6.3092 11.0665 7.02331 11.0672C7.73709 11.0664 8.43808 10.8777 9.05581 10.5201C9.673 10.1626 10.1858 9.64978 10.5433 9.03259C10.8387 8.51792 11.0176 7.94474 11.0675 7.35342H11.4812C11.5737 7.35347 11.6643 7.32789 11.7431 7.27953C11.8218 7.23116 11.8857 7.16191 11.9275 7.07946C11.9692 6.99701 11.9874 6.90458 11.9798 6.81246C11.9722 6.72033 11.9392 6.63211 11.8846 6.55759M4.30831 6.64634H3.89498C3.94368 6.21627 4.08011 5.80075 4.29581 5.42551C4.57322 4.94738 4.97081 4.55007 5.44914 4.27301C6.40831 3.71801 7.63706 3.71801 8.59664 4.27301C8.7019 4.3339 8.82703 4.35048 8.94452 4.31911C9.062 4.28773 9.16221 4.21097 9.2231 4.10572C9.28399 4.00046 9.30057 3.87532 9.2692 3.75784C9.23782 3.64036 9.16107 3.54015 9.05581 3.47926C7.81748 2.76342 6.22789 2.76342 4.98998 3.47926C4.37288 3.83685 3.86007 4.34966 3.50248 4.96676C3.20753 5.48162 3.02863 6.0547 2.97831 6.64592H2.51831C2.42587 6.64588 2.33523 6.67146 2.25646 6.71982C2.17769 6.76819 2.11386 6.83744 2.07207 6.91989C2.03029 7.00234 2.01217 7.09477 2.01975 7.18689C2.02732 7.27902 2.06028 7.36724 2.11498 7.44176L3.00998 8.66342C3.05641 8.7268 3.11713 8.77835 3.1872 8.81388C3.25728 8.84941 3.33474 8.86792 3.41331 8.86792C3.49188 8.86792 3.56934 8.84941 3.63942 8.81388C3.70949 8.77835 3.77021 8.7268 3.81664 8.66342L4.71164 7.44176C4.76633 7.36724 4.7993 7.27902 4.80687 7.18689C4.81444 7.09477 4.79633 7.00234 4.75454 6.91989C4.71276 6.83744 4.64893 6.76819 4.57016 6.71982C4.49138 6.67146 4.40074 6.64588 4.30831 6.64592" fill="#C1C1C1"/>
</svg>
