<svg width="24" height="25" viewBox="0 0 24 25" fill="none" xmlns="http://www.w3.org/2000/svg">
<path fill-rule="evenodd" clip-rule="evenodd" d="M15.604 10.745C15.317 11.994 14.457 12.544 13.828 12.947C13.177 13.363 12.952 13.537 12.952 14.126C12.952 14.3647 12.8572 14.5936 12.6884 14.7624C12.5196 14.9312 12.2907 15.026 12.052 15.026C11.8133 15.026 11.5844 14.9312 11.4156 14.7624C11.2468 14.5936 11.152 14.3647 11.152 14.126C11.152 12.521 12.138 11.891 12.858 11.43C13.43 11.065 13.733 10.85 13.85 10.342C13.951 9.901 13.871 9.511 13.61 9.183C13.268 8.754 12.657 8.476 12.052 8.476C11.074 8.476 10.278 9.273 10.278 10.251C10.278 10.4897 10.1832 10.7186 10.0144 10.8874C9.84561 11.0562 9.6167 11.151 9.378 11.151C9.13931 11.151 8.91039 11.0562 8.7416 10.8874C8.57282 10.7186 8.478 10.4897 8.478 10.251C8.47906 9.30344 8.85594 8.395 9.52597 7.72497C10.196 7.05494 11.1044 6.67806 12.052 6.677C13.201 6.677 14.337 7.207 15.018 8.062C15.62 8.818 15.828 9.771 15.604 10.745ZM12.068 18.484C11.7497 18.484 11.4445 18.3576 11.2195 18.1325C10.9944 17.9075 10.868 17.6023 10.868 17.284C10.868 16.9657 10.9944 16.6605 11.2195 16.4355C11.4445 16.2104 11.7497 16.084 12.068 16.084C12.3863 16.084 12.6915 16.2104 12.9165 16.4355C13.1416 16.6605 13.268 16.9657 13.268 17.284C13.268 17.6023 13.1416 17.9075 12.9165 18.1325C12.6915 18.3576 12.3863 18.484 12.068 18.484ZM12 1.5C5.924 1.5 1 6.425 1 12.5C1 18.576 5.924 23.5 12 23.5C18.075 23.5 23 18.576 23 12.5C23 6.425 18.075 1.5 12 1.5Z" fill="#C1C1C1"/>
</svg>
