<svg width="24" height="24" viewBox="0 0 24 24" fill="none" xmlns="http://www.w3.org/2000/svg">
<path fill-rule="evenodd" clip-rule="evenodd" d="M20.9673 12.3618C20.6538 12.3072 20.3315 12.3793 20.0712 12.5624C19.8109 12.7454 19.634 13.0243 19.5793 13.3378C19.2679 15.1266 18.3344 16.7477 16.9435 17.9148C15.5526 19.0819 13.7939 19.7198 11.9783 19.7158C7.72428 19.7158 4.26328 16.2548 4.26328 11.9998C4.26328 7.74577 7.72428 4.28477 11.9783 4.28477C13.9123 4.28477 15.7313 4.99877 17.1533 6.28877L16.1613 7.28077C16.0315 7.41006 15.9401 7.57281 15.8973 7.75093C15.8546 7.92905 15.862 8.11555 15.9189 8.28967C15.9758 8.46379 16.0799 8.61872 16.2196 8.7372C16.3594 8.85568 16.5292 8.93308 16.7103 8.96077L20.9223 9.61077C21.0762 9.63449 21.2334 9.62159 21.3814 9.57311C21.5293 9.52462 21.6638 9.44193 21.7738 9.33175C21.8838 9.22156 21.9662 9.08699 22.0144 8.93895C22.0626 8.79092 22.0753 8.6336 22.0513 8.47977L21.4023 4.26877C21.3744 4.08782 21.2969 3.91812 21.1785 3.77852C21.06 3.63891 20.9052 3.53485 20.7312 3.47789C20.5572 3.42092 20.3708 3.41327 20.1927 3.45579C20.0146 3.49831 19.8518 3.58934 19.7223 3.71877L18.8503 4.59177C16.9866 2.84939 14.5296 1.88156 11.9783 1.88477C6.40128 1.88477 1.86328 6.42277 1.86328 11.9998C1.86328 17.5778 6.40128 22.1148 11.9783 22.1148C16.9063 22.1148 21.0963 18.5968 21.9433 13.7498C21.9979 13.4363 21.9257 13.114 21.7427 12.8537C21.5597 12.5934 21.2807 12.4165 20.9673 12.3618Z" fill="#C1C1C1"/>
</svg>
