<svg width="24" height="24" viewBox="0 0 24 24" fill="none" xmlns="http://www.w3.org/2000/svg">
<path fill-rule="evenodd" clip-rule="evenodd" d="M2.59961 9.59961H6.39961C8.19961 9.59961 9.59961 8.19961 9.59961 6.39961V2.59961H7.19961V6.39961C7.19961 6.79961 6.79961 7.19961 6.39961 7.19961H2.59961V9.59961ZM7.19961 20.8996H9.59961V17.1996C9.59961 15.3996 8.19961 13.9996 6.39961 13.9996H2.59961V16.3996H6.39961C6.79961 16.3996 7.19961 16.7996 7.19961 17.1996V20.8996ZM20.8996 9.59961H17.1996C15.3996 9.59961 13.9996 8.19961 13.9996 6.39961V2.59961H16.3996V6.39961C16.3996 6.79961 16.7996 7.19961 17.1996 7.19961H20.9996V9.59961H20.8996ZM13.9996 20.8996H16.3996V17.1996C16.3996 16.7996 16.7996 16.3996 17.1996 16.3996H20.9996V13.9996H17.1996C15.3996 13.9996 13.9996 15.3996 13.9996 17.1996V20.8996Z" fill="#333333"/>
</svg>
