<svg width="14" height="14" viewBox="0 0 14 14" fill="none" xmlns="http://www.w3.org/2000/svg">
<path fill-rule="evenodd" clip-rule="evenodd" d="M8.51287 7.00091L13.222 2.29175C13.3149 2.19889 13.3887 2.08864 13.439 1.9673C13.4893 1.84596 13.5152 1.7159 13.5152 1.58454C13.5153 1.45318 13.4894 1.32311 13.4392 1.20173C13.389 1.08036 13.3153 0.970073 13.2225 0.877163C13.1296 0.784252 13.0194 0.710541 12.898 0.660237C12.7767 0.609934 12.6466 0.584023 12.5152 0.583984C12.3839 0.583946 12.2538 0.60978 12.1324 0.660012C12.0111 0.710244 11.9008 0.78389 11.8079 0.876746L7.0987 5.58675L2.3887 0.876746C2.199 0.699559 1.94788 0.603009 1.68834 0.607473C1.42879 0.611936 1.18114 0.717066 0.997643 0.900671C0.814146 1.08428 0.709163 1.33199 0.704852 1.59154C0.700541 1.85108 0.797239 2.10215 0.974537 2.29175L5.68454 7.00091L0.974537 11.7101C0.835336 11.8502 0.740688 12.0284 0.702494 12.2223C0.664301 12.4161 0.684269 12.6168 0.759886 12.7993C0.835503 12.9818 0.963393 13.1379 1.12747 13.2479C1.29155 13.3579 1.4845 13.4169 1.68204 13.4176C1.93787 13.4176 2.1937 13.3201 2.3887 13.1251L7.0987 8.41508L11.8079 13.1251C11.9006 13.2181 12.0108 13.292 12.1322 13.3423C12.2535 13.3927 12.3836 13.4186 12.515 13.4186C12.6463 13.4186 12.7764 13.3927 12.8978 13.3423C13.0191 13.292 13.1293 13.2181 13.222 13.1251C13.315 13.0322 13.3888 12.9219 13.4391 12.8005C13.4894 12.6791 13.5153 12.549 13.5153 12.4176C13.5153 12.2862 13.4894 12.156 13.4391 12.0346C13.3888 11.9132 13.315 11.803 13.222 11.7101L8.51287 7.00091Z" fill="#8B8B8B"/>
</svg>
