<svg width="24" height="24" viewBox="0 0 24 24" fill="none" xmlns="http://www.w3.org/2000/svg">
<path fill-rule="evenodd" clip-rule="evenodd" d="M14 14.1674V22.191C14 22.5627 13.6088 22.8044 13.2764 22.6382L10.2764 21.1382C10.107 21.0535 10 20.8804 10 20.691V14.1674L2.16377 4.28271C2.06447 4.1575 2.00818 4.01257 2.00083 3.86324C1.99347 3.7139 2.03534 3.56571 2.122 3.43431C2.20867 3.30292 2.33691 3.1932 2.49317 3.11675C2.64944 3.04031 2.82793 2.99997 3.00979 3H20.9902C21.1721 2.99997 21.3506 3.04031 21.5068 3.11676C21.6631 3.1932 21.7913 3.30292 21.878 3.43432C21.9647 3.56571 22.0065 3.7139 21.9992 3.86324C21.9918 4.01257 21.9355 4.1575 21.8362 4.28272L14 14.1674Z" fill="#C1C1C1"/>
</svg>
