<svg width="24" height="24" viewBox="0 0 24 24" fill="none" xmlns="http://www.w3.org/2000/svg">
<path fill-rule="evenodd" clip-rule="evenodd" d="M12.0005 15.667C11.519 15.667 11.0422 15.5722 10.5974 15.3879C10.1525 15.2036 9.74834 14.9336 9.40787 14.5931C9.06741 14.2526 8.79734 13.8484 8.61308 13.4036C8.42882 12.9588 8.33398 12.482 8.33398 12.0005C8.33398 11.519 8.42882 11.0422 8.61308 10.5974C8.79734 10.1526 9.06741 9.74836 9.40787 9.40789C9.74834 9.06743 10.1525 8.79735 10.5974 8.6131C11.0422 8.42884 11.519 8.334 12.0005 8.334C12.9729 8.334 13.9055 8.72029 14.5931 9.40789C15.2807 10.0955 15.667 11.0281 15.667 12.0005C15.667 12.9729 15.2807 13.9055 14.5931 14.5931C13.9055 15.2807 12.9729 15.667 12.0005 15.667V15.667ZM21.0335 13.952C20.5305 13.4311 20.2497 12.7351 20.2505 12.011V11.99C20.2497 11.2659 20.5305 10.5699 21.0335 10.049L21.9725 9.079C22.3585 8.679 22.4325 8.071 22.1555 7.59L20.8975 5.412C20.7625 5.17755 20.5547 4.9935 20.3057 4.88775C20.0567 4.78201 19.7799 4.76033 19.5175 4.826L18.2025 5.154C17.4963 5.3308 16.749 5.2242 16.1205 4.857L16.1025 4.847C15.4834 4.48722 15.0279 3.90155 14.8315 3.213L14.4555 1.904C14.3813 1.64368 14.2244 1.41462 14.0084 1.2515C13.7924 1.08837 13.5291 1.00008 13.2585 1H10.7425C10.1875 1 9.69748 1.369 9.54548 1.904L9.14048 3.313C8.96266 3.94272 8.54466 4.47743 7.97648 4.802C7.91779 4.83482 7.85978 4.86882 7.80248 4.904C7.23239 5.2435 6.55106 5.34345 5.90748 5.182L4.48248 4.826C4.22013 4.76041 3.94356 4.78202 3.69458 4.88756C3.44561 4.99311 3.23776 5.17685 3.10248 5.411L1.84548 7.59C1.71028 7.82444 1.65501 8.09649 1.68802 8.3651C1.72104 8.6337 1.84054 8.88428 2.02848 9.079L2.96748 10.049C3.47048 10.57 3.75148 11.266 3.75148 11.989V12.011C3.75148 12.735 3.47048 13.431 2.96748 13.952L2.46448 14.472C2.15081 14.7963 1.95128 15.214 1.89607 15.6618C1.84086 16.1096 1.93298 16.5632 2.15848 16.954L3.10348 18.589C3.38148 19.071 3.94348 19.31 4.48348 19.175L5.90848 18.819C6.55206 18.6576 7.23339 18.7575 7.80348 19.097C7.86048 19.132 7.91848 19.166 7.97748 19.199C8.54648 19.521 8.96148 20.058 9.14148 20.688L9.54548 22.097C9.69748 22.632 10.1875 23 10.7425 23H13.2585C13.8135 23 14.3035 22.632 14.4555 22.097L14.8595 20.688C15.0395 20.058 15.4545 19.521 16.0235 19.199C16.0825 19.166 16.1405 19.132 16.1975 19.097C16.7676 18.7575 17.4489 18.6576 18.0925 18.819L19.5175 19.175C19.7798 19.2406 20.0564 19.219 20.3054 19.1134C20.5544 19.0079 20.7622 18.8242 20.8975 18.59L22.1555 16.411C22.2907 16.1766 22.3459 15.9045 22.3129 15.6359C22.2799 15.3673 22.1604 15.1167 21.9725 14.922L21.0325 13.952H21.0335Z" stroke="#333333" stroke-width="2" stroke-linejoin="round"/>
</svg>
