<svg width="24px" height="24px" viewBox="0 0 24 24" fill="none" xmlns="http://www.w3.org/2000/svg">
<path d="M4.59922 9.09922H2.19922V5.39922C2.19922 3.59922 3.59922 2.19922 5.39922 2.19922H9.19922V4.59922H5.39922C4.99922 4.59922 4.59922 4.99922 4.59922 5.39922V9.09922ZM9.09922 21.7992H5.39922C3.59922 21.7992 2.19922 20.3992 2.19922 18.5992V14.7992H4.59922V18.5992C4.59922 18.9992 4.99922 19.3992 5.39922 19.3992H9.19922V21.7992H9.09922ZM18.5992 21.7992H14.7992V19.3992H18.5992C18.9992 19.3992 19.3992 18.9992 19.3992 18.5992V14.7992H21.7992V18.5992C21.7992 20.3992 20.3992 21.7992 18.5992 21.7992ZM21.7992 9.09922H19.3992V5.39922C19.3992 4.99922 18.9992 4.59922 18.5992 4.59922H14.7992V2.19922H18.5992C20.3992 2.19922 21.7992 3.59922 21.7992 5.39922V9.09922Z" fill="#333333"/>
</svg>
