<svg width="24" height="24" viewBox="0 0 24 24" fill="none" xmlns="http://www.w3.org/2000/svg">
<path fill-rule="evenodd" clip-rule="evenodd" d="M19.6391 14.5928V9.5V9H19.6227C19.3655 5.09098 16.1133 2 12.1391 2C8.16503 2 4.91284 5.09098 4.65555 9H4.63915V9.5V14.5928C4.58115 14.6341 4.53172 14.688 4.49519 14.7519L3.06662 17.2519C2.87614 17.5853 3.11683 18 3.50074 18H4.63915H7.63915H16.6391H19.6391H20.7776C21.1615 18 21.4022 17.5853 21.2117 17.2519L19.7831 14.7519C19.7466 14.688 19.6971 14.6341 19.6391 14.5928ZM12.1392 23C10.4823 23 9.13916 21.6569 9.13916 20H15.1392C15.1392 21.6569 13.796 23 12.1392 23Z" fill="#333333"/>
</svg>
