<svg width="18" height="18" viewBox="0 0 18 18" fill="none" xmlns="http://www.w3.org/2000/svg">
<path d="M3.22578 9.27738V8.51988C3.22578 6.42738 4.92828 4.72488 7.02078 4.72488H12.7133L12.2933 5.14488C12.1242 5.31396 12.0292 5.54327 12.0292 5.78238C12.0292 6.02149 12.1242 6.25081 12.2933 6.41988C12.4624 6.58896 12.6917 6.68394 12.9308 6.68394C13.1699 6.68394 13.3992 6.58896 13.5683 6.41988L15.5258 4.46238C15.6908 4.28988 15.7883 4.06488 15.7883 3.82488C15.7883 3.58488 15.6908 3.35988 15.5258 3.18738L13.5683 1.22988C13.4846 1.14616 13.3852 1.07976 13.2758 1.03445C13.1664 0.98914 13.0492 0.96582 12.9308 0.96582C12.8124 0.96582 12.6952 0.98914 12.5858 1.03445C12.4764 1.07976 12.377 1.14616 12.2933 1.22988C12.1242 1.39896 12.0292 1.62827 12.0292 1.86738C12.0292 2.10649 12.1242 2.33581 12.2933 2.50488L12.7133 2.92488H7.02078C3.93828 2.92488 1.42578 5.43738 1.42578 8.51988V9.27738C1.42578 9.77238 1.83078 10.1774 2.32578 10.1774C2.82078 10.1774 3.22578 9.77988 3.22578 9.27738ZM15.6758 7.82238C15.1808 7.82238 14.7758 8.22738 14.7758 8.72238V9.47988C14.7758 11.5724 13.0733 13.2749 10.9808 13.2749H5.28828L5.70828 12.8549C5.87736 12.6858 5.97234 12.4565 5.97234 12.2174C5.97234 11.9783 5.87736 11.749 5.70828 11.5799C5.53921 11.4108 5.30989 11.3158 5.07078 11.3158C4.83167 11.3158 4.60236 11.4108 4.43328 11.5799L2.47578 13.5374C2.30328 13.7024 2.21328 13.9349 2.21328 14.1749C2.21328 14.4149 2.31078 14.6399 2.47578 14.8124L4.43328 16.7699C4.60254 16.9386 4.83179 17.0333 5.07078 17.0333C5.30977 17.0333 5.53902 16.9386 5.70828 16.7699C6.06078 16.4174 6.06078 15.8474 5.70828 15.4949L5.28828 15.0749H10.9808C14.0633 15.0749 16.5758 12.5624 16.5758 9.47988V8.72238C16.5758 8.21988 16.1708 7.82238 15.6758 7.82238Z" fill="#C1C1C1"/>
</svg>
