<svg width="24" height="24" viewBox="0 0 24 24" fill="none" xmlns="http://www.w3.org/2000/svg">
<rect x="2.5" y="3.5" width="19" height="18" rx="1.5" stroke="#C1C1C1"/>
<path d="M6 2C6 1.44772 6.44772 1 7 1C7.55228 1 8 1.44772 8 2V3H6V2Z" fill="#C1C1C1"/>
<path d="M16 2C16 1.44772 16.4477 1 17 1C17.5523 1 18 1.44772 18 2V3H16V2Z" fill="#C1C1C1"/>
<rect x="3" y="4" width="18" height="4" fill="#C1C1C1"/>
<rect x="6" y="11" width="2" height="2" fill="#C1C1C1"/>
<rect x="16" y="11" width="2" height="2" fill="#C1C1C1"/>
<rect x="11" y="11" width="2" height="2" fill="#C1C1C1"/>
<rect x="6" y="15.5" width="2" height="2" fill="#C1C1C1"/>
<rect x="16" y="15.5" width="2" height="2" fill="#C1C1C1"/>
<rect x="11" y="15.5" width="2" height="2" fill="#C1C1C1"/>
</svg>
