<svg width="38" height="38" viewBox="0 0 38 38" fill="none" xmlns="http://www.w3.org/2000/svg">
<path fill-rule="evenodd" clip-rule="evenodd" d="M20.9671 19.0002L27.089 12.8783C27.2098 12.7576 27.3056 12.6143 27.371 12.4565C27.4364 12.2988 27.4701 12.1297 27.4702 11.9589C27.4702 11.7882 27.4366 11.6191 27.3713 11.4613C27.306 11.3035 27.2103 11.1601 27.0896 11.0393C26.9689 10.9186 26.8255 10.8227 26.6678 10.7573C26.5101 10.6919 26.341 10.6583 26.1702 10.6582C25.9994 10.6582 25.8303 10.6917 25.6726 10.757C25.5148 10.8223 25.3714 10.9181 25.2506 11.0388L19.1287 17.1618L13.0057 11.0388C12.7591 10.8085 12.4326 10.6829 12.0952 10.6887C11.7578 10.6945 11.4359 10.8312 11.1973 11.0699C10.9588 11.3086 10.8223 11.6306 10.8167 11.968C10.8111 12.3054 10.9368 12.6318 11.1673 12.8783L17.2903 19.0002L11.1673 25.1221C10.9863 25.3043 10.8633 25.536 10.8136 25.788C10.764 26.0399 10.7899 26.3009 10.8882 26.5382C10.9865 26.7754 11.1528 26.9783 11.3661 27.1213C11.5794 27.2643 11.8302 27.341 12.087 27.3419C12.4196 27.3419 12.7522 27.2151 13.0057 26.9616L19.1287 20.8386L25.2506 26.9616C25.3712 27.0826 25.5145 27.1786 25.6722 27.2441C25.8299 27.3095 25.999 27.3433 26.1698 27.3433C26.3406 27.3433 26.5097 27.3095 26.6675 27.2441C26.8252 27.1786 26.9685 27.0826 27.089 26.9616C27.2099 26.8409 27.3058 26.6975 27.3712 26.5397C27.4366 26.3819 27.4703 26.2127 27.4703 26.0419C27.4703 25.871 27.4366 25.7019 27.3712 25.5441C27.3058 25.3862 27.2099 25.2429 27.089 25.1221L20.9671 19.0002Z" fill="white"/>
<circle cx="19" cy="19" r="18" stroke="white" stroke-width="2"/>
</svg>
