<svg width="24" height="24" viewBox="0 0 24 24" fill="none" xmlns="http://www.w3.org/2000/svg">
<path d="M21.8498 20.1508L17.2428 15.5438C18.3278 14.1058 18.9788 12.3238 18.9788 10.3878C18.9788 5.65183 15.1248 1.79883 10.3898 1.79883C5.65378 1.79983 1.80078 5.65283 1.80078 10.3888C1.80078 15.1238 5.65378 18.9778 10.3898 18.9778C12.3248 18.9778 14.1078 18.3268 15.5458 17.2418L20.1528 21.8488C20.3868 22.0828 20.6938 22.1998 21.0008 22.1998C21.3078 22.1998 21.6148 22.0828 21.8498 21.8478C22.3178 21.3798 22.3178 20.6198 21.8498 20.1508ZM4.20078 10.3888C4.20078 6.97583 6.97678 4.19983 10.3898 4.19983C13.8018 4.19983 16.5778 6.97583 16.5778 10.3878C16.5778 13.7998 13.8018 16.5758 10.3898 16.5758C6.97678 16.5768 4.20078 13.8008 4.20078 10.3888Z" fill="#C1C1C1"/>
</svg>
