<svg width="18" height="18" viewBox="0 0 18 18" fill="none" xmlns="http://www.w3.org/2000/svg">
<path d="M3.2248 9.27738V8.51988C3.2248 6.42738 4.9273 4.72488 7.0198 4.72488H12.7123L12.2923 5.14488C12.1232 5.31396 12.0282 5.54327 12.0282 5.78238C12.0282 6.02149 12.1232 6.25081 12.2923 6.41988C12.4614 6.58896 12.6907 6.68394 12.9298 6.68394C13.1689 6.68394 13.3982 6.58896 13.5673 6.41988L15.5248 4.46238C15.6898 4.28988 15.7873 4.06488 15.7873 3.82488C15.7873 3.58488 15.6898 3.35988 15.5248 3.18738L13.5673 1.22988C13.4836 1.14616 13.3842 1.07976 13.2748 1.03445C13.1654 0.98914 13.0482 0.96582 12.9298 0.96582C12.8114 0.96582 12.6942 0.98914 12.5848 1.03445C12.4754 1.07976 12.376 1.14616 12.2923 1.22988C12.1232 1.39896 12.0282 1.62827 12.0282 1.86738C12.0282 2.10649 12.1232 2.33581 12.2923 2.50488L12.7123 2.92488H7.0198C3.9373 2.92488 1.4248 5.43738 1.4248 8.51988V9.27738C1.4248 9.77238 1.8298 10.1774 2.3248 10.1774C2.8198 10.1774 3.2248 9.77988 3.2248 9.27738ZM15.6748 7.82238C15.1798 7.82238 14.7748 8.22738 14.7748 8.72238V9.47988C14.7748 11.5724 13.0723 13.2749 10.9798 13.2749H5.2873L5.7073 12.8549C5.87638 12.6858 5.97137 12.4565 5.97137 12.2174C5.97137 11.9783 5.87638 11.749 5.7073 11.5799C5.53823 11.4108 5.30891 11.3158 5.0698 11.3158C4.8307 11.3158 4.60138 11.4108 4.4323 11.5799L2.4748 13.5374C2.3023 13.7024 2.2123 13.9349 2.2123 14.1749C2.2123 14.4149 2.3098 14.6399 2.4748 14.8124L4.4323 16.7699C4.60157 16.9386 4.83081 17.0333 5.0698 17.0333C5.3088 17.0333 5.53804 16.9386 5.7073 16.7699C6.0598 16.4174 6.0598 15.8474 5.7073 15.4949L5.2873 15.0749H10.9798C14.0623 15.0749 16.5748 12.5624 16.5748 9.47988V8.72238C16.5748 8.21988 16.1698 7.82238 15.6748 7.82238V7.82238Z" fill="#C1C1C1"/>
</svg>
