<svg width="424" height="271" viewBox="0 0 424 271" fill="none" xmlns="http://www.w3.org/2000/svg">
<g clip-path="url(#clip0_766_41338)">
<path d="M201.29 0.5H151.98C149.942 0.5 148.29 2.15207 148.29 4.19V39.08C148.29 41.1179 149.942 42.77 151.98 42.77H201.29C203.328 42.77 204.98 41.1179 204.98 39.08V4.19C204.98 2.15207 203.328 0.5 201.29 0.5Z" fill="white" stroke="#3EA2FF" stroke-linecap="round" stroke-linejoin="round"/>
<path d="M202.34 6.25027V39.3703C202.34 39.9103 201.85 40.3403 201.25 40.3403H151.96C151.35 40.3403 150.87 39.9103 150.87 39.3703V6.25027C150.87 6.08027 150.91 5.93027 150.99 5.80027C151.17 5.49027 151.54 5.28027 151.96 5.28027H201.25C201.85 5.28027 202.34 5.71027 202.34 6.25027Z" fill="white" stroke="#3EA2FF" stroke-linecap="round" stroke-linejoin="round"/>
<path d="M195.57 2.99047C195.57 3.55047 195.12 4.00047 194.56 4.00047C194 4.00047 193.55 3.55047 193.55 2.99047C193.55 2.43047 194 1.98047 194.56 1.98047C195.12 1.98047 195.57 2.43047 195.57 2.99047Z" fill="#3EA2FF"/>
<path d="M202.34 2.99047C202.34 3.55047 201.89 4.00047 201.33 4.00047C200.77 4.00047 200.32 3.55047 200.32 2.99047C200.32 2.43047 200.77 1.98047 201.33 1.98047C201.89 1.98047 202.34 2.43047 202.34 2.99047Z" fill="#3EA2FF"/>
<path d="M198.95 2.99047C198.95 3.55047 198.5 4.00047 197.94 4.00047C197.38 4.00047 196.93 3.55047 196.93 2.99047C196.93 2.43047 197.38 1.98047 197.94 1.98047C198.5 1.98047 198.95 2.43047 198.95 2.99047Z" fill="#3EA2FF"/>
<path d="M156.52 3.44004H150.69C150.44 3.44004 150.24 3.24004 150.24 2.99004C150.24 2.74004 150.44 2.54004 150.69 2.54004H156.52C156.77 2.54004 156.97 2.74004 156.97 2.99004C156.97 3.24004 156.77 3.44004 156.52 3.44004Z" fill="#3EA2FF"/>
<path d="M154.07 33.3404C154.07 33.3404 158.13 33.4304 160.11 28.4504C160.42 27.6704 160.63 26.8404 160.75 26.0104C161.26 22.6604 164.54 7.57045 182.47 9.35045C184.35 9.54045 186.17 10.1804 187.7 11.3004C188.89 12.1704 190.08 13.4204 190.69 15.1404C191.2 16.5704 189.95 18.0204 188.47 17.7104C187.91 17.5904 187.33 17.3604 186.78 16.9504C186.78 16.9504 185.56 16.1104 184.26 15.9904C183.03 15.8804 182.33 17.3904 183.21 18.2704C183.31 18.3704 183.42 18.4704 183.55 18.5704C183.55 18.5704 183.55 18.5704 183.58 18.5904C184.33 19.0204 184.01 20.1704 183.15 20.1804C181.82 20.1804 180.05 20.5104 179.01 22.0004C178.44 22.8204 178.23 23.8204 178.34 24.8104C178.51 26.3104 179.34 28.8404 182.78 30.2404C183.8 30.6604 184.89 30.8704 186 30.9104C187.8 30.9804 191.52 31.3604 192.54 33.3604V38.4804H154.09V33.3604L154.07 33.3404Z" fill="#D6F8FD"/>
<path d="M188.922 23.0605C189.405 22.4778 189.276 21.5742 188.633 21.0423C187.991 20.5104 187.079 20.5516 186.596 21.1343C186.114 21.7171 186.243 22.6207 186.886 23.1526C187.528 23.6845 188.44 23.6433 188.922 23.0605Z" fill="white"/>
<path d="M187.7 11.2901C186.62 10.5001 185.4 9.95012 184.11 9.62012C184.59 10.0901 185.04 10.6201 185.36 11.1801C185.99 12.2801 185.01 13.6001 183.77 13.3201C183.75 13.3201 183.73 13.3201 183.71 13.3101C181.67 12.8301 179.67 14.6901 180.65 17.3001C180.65 17.3001 181.74 20.0401 178.23 21.1401C176.62 21.6501 177.2 22.9601 178.3 24.2401C178.3 23.4301 178.53 22.6401 178.99 21.9701C180.02 20.4801 181.79 20.1501 183.13 20.1501C184 20.1501 184.32 19.0001 183.56 18.5601C183.54 18.5501 183.53 18.5401 183.53 18.5401C183.4 18.4401 183.29 18.3401 183.19 18.2401C182.32 17.3701 183.01 15.8501 184.24 15.9601C185.54 16.0801 186.76 16.9201 186.76 16.9201C187.31 17.3301 187.9 17.5601 188.45 17.6801C189.93 17.9901 191.18 16.5401 190.67 15.1101C190.06 13.3901 188.86 12.1401 187.68 11.2701L187.7 11.2901Z" fill="white"/>
<path d="M182.77 30.23C179.33 28.83 178.51 26.3 178.33 24.8C178.22 23.81 178.43 22.81 179 21.99C180.03 20.5 181.8 20.17 183.14 20.17C183.14 20.17 175.35 17.88 173.52 26.19C173.23 27.49 173.34 28.85 173.87 30.06C174.47 31.42 175.7 32.86 178.22 33.23C178.22 33.23 180.99 33.63 184.32 32.5C186.51 31.76 188.2 31.45 189.87 31.49C188.5 31.06 186.96 30.93 185.99 30.9C184.89 30.86 183.8 30.65 182.77 30.23Z" fill="white"/>
<path d="M182.95 29.7799C179.86 28.5199 178.99 26.3399 178.81 24.7399C178.71 23.8299 178.91 22.9499 179.39 22.2599C179.54 22.0399 179.49 21.7399 179.27 21.5899C179.05 21.4399 178.75 21.4899 178.6 21.7099C177.99 22.5899 177.72 23.7099 177.85 24.8499C178.03 26.3699 178.87 29.1599 182.58 30.6699C183.62 31.0899 184.75 31.3299 185.96 31.3699C187.5 31.4299 191.17 31.7499 192.09 33.5499C192.17 33.7199 192.34 33.8099 192.52 33.8099C192.59 33.8099 192.67 33.7899 192.74 33.7599C192.98 33.6399 193.07 33.3499 192.95 33.1099C191.84 30.9299 188.12 30.4799 186 30.3999C184.91 30.3599 183.88 30.1499 182.95 29.7699V29.7799Z" fill="#3EA2FF"/>
<path d="M172.561 9.83013C172.311 9.92013 172.181 10.1901 172.261 10.4401C172.351 10.6901 172.621 10.8201 172.871 10.7401C175.641 9.78013 178.851 9.47013 182.411 9.82013C184.261 10.0001 185.991 10.6501 187.401 11.6801C188.781 12.6901 189.731 13.9101 190.231 15.2901C190.411 15.8001 190.311 16.3501 189.951 16.7601C189.601 17.1601 189.081 17.3401 188.561 17.2301C188.011 17.1101 187.501 16.8901 187.061 16.5601C187.061 16.5601 187.061 16.5601 187.051 16.5501C187.001 16.5101 185.711 15.6401 184.301 15.5101C183.541 15.4401 182.831 15.8501 182.511 16.5501C182.181 17.2601 182.321 18.0601 182.871 18.6101C182.991 18.7301 183.111 18.8401 183.251 18.9501C183.271 18.9701 183.301 18.9901 183.331 19.0001C183.551 19.1201 183.521 19.3301 183.501 19.4101C183.481 19.4701 183.411 19.6601 183.181 19.6901C182.611 19.5401 179.461 18.8201 176.711 20.4501C174.861 21.5401 173.631 23.4501 173.041 26.1001C172.951 26.5201 172.891 26.9501 172.881 27.3801C172.881 27.6501 173.081 27.8701 173.341 27.8801C173.341 27.8801 173.351 27.8801 173.361 27.8801C173.621 27.8801 173.831 27.6801 173.841 27.4201C173.851 27.0501 173.901 26.6801 173.981 26.3101C174.501 23.9301 175.581 22.2401 177.191 21.2901C179.791 19.7401 182.961 20.6401 182.991 20.6501C182.991 20.6501 183.001 20.6501 183.011 20.6501C183.031 20.6501 183.041 20.6501 183.061 20.6501C183.081 20.6501 183.091 20.6501 183.111 20.6501C183.111 20.6501 183.121 20.6501 183.131 20.6501C183.741 20.6501 184.261 20.2501 184.421 19.6501C184.581 19.0601 184.331 18.4701 183.801 18.1601C183.701 18.0801 183.611 18.0001 183.531 17.9201C183.221 17.6101 183.241 17.2201 183.371 16.9501C183.491 16.6901 183.771 16.4201 184.201 16.4601C185.321 16.5601 186.401 17.2701 186.491 17.3301C187.041 17.7401 187.671 18.0201 188.361 18.1701C189.221 18.3501 190.091 18.0601 190.671 17.3901C191.261 16.7101 191.431 15.8101 191.131 14.9601C190.571 13.3901 189.511 12.0201 187.971 10.9001C186.421 9.77013 184.531 9.06013 182.511 8.86013C178.811 8.49013 175.461 8.82013 172.561 9.82013V9.83013Z" fill="#3EA2FF"/>
<path d="M169.9 11.0101L169.86 11.0301C169.63 11.1601 169.54 11.4501 169.67 11.6801C169.76 11.8401 169.92 11.9301 170.09 11.9301C170.17 11.9301 170.25 11.9101 170.32 11.8701L170.35 11.8501C170.58 11.7201 170.67 11.4301 170.54 11.2001C170.41 10.9701 170.12 10.8801 169.89 11.0101H169.9Z" fill="#3EA2FF"/>
<path d="M154.061 33.8203C154.061 33.8203 154.081 33.8203 154.091 33.8203C154.511 33.8203 158.541 33.6903 160.561 28.6203C160.871 27.8503 161.091 26.9903 161.231 26.0703C161.521 24.1403 162.881 17.5303 168.131 13.3403C168.341 13.1703 168.371 12.8703 168.211 12.6603C168.041 12.4503 167.741 12.4203 167.531 12.5803C162.001 16.9903 160.581 23.9103 160.281 25.9203C160.151 26.7703 159.951 27.5503 159.671 28.2503C157.851 32.8303 154.251 32.8403 154.091 32.8403C153.821 32.8403 153.611 33.0503 153.601 33.3103C153.601 33.5803 153.811 33.8003 154.071 33.8003L154.061 33.8203Z" fill="#3EA2FF"/>
<path d="M184.16 32.0404C180.99 33.1204 178.31 32.7504 178.29 32.7504C177.29 32.6104 176.45 32.2704 175.77 31.7504C175.56 31.5904 175.26 31.6304 175.09 31.8404C174.93 32.0504 174.97 32.3504 175.18 32.5204C175.99 33.1404 176.99 33.5404 178.15 33.7104C178.2 33.7104 178.69 33.7904 179.49 33.7904C180.65 33.7904 182.46 33.6504 184.47 32.9604C184.72 32.8704 184.86 32.6004 184.77 32.3504C184.68 32.1004 184.41 31.9604 184.16 32.0504V32.0404Z" fill="#3EA2FF"/>
<path d="M173.67 29.6197C173.43 29.7297 173.32 30.0097 173.43 30.2597V30.2797C173.52 30.4597 173.69 30.5697 173.88 30.5697C173.95 30.5697 174.01 30.5597 174.08 30.5297C174.32 30.4197 174.43 30.1397 174.32 29.8897V29.8697C174.2 29.6297 173.92 29.5197 173.68 29.6297L173.67 29.6197Z" fill="#3EA2FF"/>
<path d="M192.8 37.0897C192.66 36.9897 189.28 34.6997 183.77 36.2197C182.23 36.6397 180.62 36.8297 178.97 36.7797C177.04 36.7197 175.07 36.2497 173.14 35.3797C168.34 33.2297 164.49 34.5997 162.62 35.6097C161.45 36.2497 160.2 36.6997 158.91 36.9697C155.85 37.5997 154.24 37.1297 154.21 37.1197C153.96 37.0397 153.69 37.1797 153.61 37.4297C153.53 37.6797 153.67 37.9497 153.92 38.0397C153.97 38.0497 154.65 38.2597 155.94 38.2597C156.75 38.2597 157.81 38.1797 159.1 37.9097C160.48 37.6297 161.82 37.1397 163.08 36.4597C164.79 35.5297 168.32 34.2697 172.74 36.2597C174.79 37.1797 176.88 37.6797 178.94 37.7397C180.68 37.7897 182.39 37.5897 184.02 37.1397C189.07 35.7497 192.21 37.8597 192.24 37.8797C192.46 38.0297 192.76 37.9797 192.91 37.7597C193.06 37.5397 193.01 37.2397 192.79 37.0897H192.8Z" fill="#3EA2FF"/>
<path d="M188.94 20.6805C188.54 20.3505 188.04 20.1705 187.53 20.2005C187.01 20.2205 186.54 20.4505 186.22 20.8405C185.9 21.2305 185.76 21.7305 185.84 22.2505C185.91 22.7505 186.17 23.2105 186.58 23.5505C186.96 23.8605 187.43 24.0405 187.9 24.0405C187.93 24.0405 187.96 24.0405 187.99 24.0405C188.51 24.0205 188.98 23.7905 189.3 23.4005C189.95 22.6105 189.79 21.4005 188.95 20.7005L188.94 20.6805ZM188.55 22.7705C188.4 22.9505 188.19 23.0505 187.94 23.0605C187.67 23.0705 187.41 22.9805 187.19 22.8005C186.97 22.6205 186.83 22.3705 186.79 22.1105C186.75 21.8605 186.82 21.6305 186.96 21.4505C187.11 21.2705 187.32 21.1705 187.57 21.1605C187.59 21.1605 187.6 21.1605 187.62 21.1605C187.87 21.1605 188.12 21.2505 188.33 21.4205C188.77 21.7805 188.87 22.3905 188.56 22.7705H188.55Z" fill="#3EA2FF"/>
<path d="M271.01 53.46H225.86V111.98H271.01V53.46Z" fill="#3EA2FF"/>
<path d="M312.69 270.2L288.19 177.72L211.86 185L189.5 270.2H312.69Z" fill="#FBFBFB"/>
<path d="M174.36 91.7305C174.36 91.7305 178.19 91.8505 180.12 93.3505C182.05 94.8505 174.34 97.9405 174.34 97.9405L174.36 91.7305Z" fill="white" stroke="#3EA2FF" stroke-miterlimit="10"/>
<path d="M302.41 219.5L295.13 227.61L296.72 233.13L302.68 234.2C302.68 234.2 306.66 230.86 306.73 228.05C306.8 225.24 302.41 219.49 302.41 219.49V219.5Z" fill="#FBFBFB"/>
<path d="M167.6 117.69C167.6 117.69 176.25 111.47 176.07 97.9399C175.98 91.3699 188.21 83.4899 188.21 83.4899L200.99 80.9199L202.31 96.2699L189.75 122.86L185.15 130.21L171.09 136.66L167.6 117.69Z" fill="white" stroke="#3EA2FF" stroke-miterlimit="10"/>
<path d="M292.3 193.23L288.28 178.07L270.41 179.41L211.86 185L208.68 197.11L292.3 193.23Z" fill="#3EA2FF"/>
<path d="M266.56 85.6602L230.7 89.1602L231.58 97.9402L253.97 96.4602L261.35 93.3702L266.56 85.6602Z" fill="#3EA2FF"/>
<path d="M256.57 73.21H237.96V129.05H256.57V73.21Z" fill="white" stroke="#3EA2FF" stroke-width="0.5" stroke-miterlimit="10"/>
<path d="M263.33 94.71L280.98 92.46C297.14 90.4 313.33 96 324.75 107.61L377.29 160.97C394.35 178.3 392.12 206.76 372.51 221.14C357.59 232.08 332.48 238.71 305.23 231.52L297.7 210.07L328.26 185.62L310.56 173.19L311.4 186.89L185.37 197.22L185.16 167.31L181.59 131.05L194.24 110.2L231.59 97.95L230.66 89.17L239.8 94.42L238.99 120.79L246.83 94.98L266.54 85.71L263.34 94.71H263.33Z" fill="#FDCCBE"/>
<path fill-rule="evenodd" clip-rule="evenodd" d="M232.86 209.86C232.86 209.86 232.96 209.9 233.02 209.93C233.11 209.9 233.53 210.04 233.93 210.34C233.74 210.23 233.58 210.19 233.41 210.13C233.33 210.1 233.24 210.07 233.15 210.03C233.1 210.01 233.06 209.99 233.01 209.96C232.96 209.93 232.91 209.9 232.85 209.86H232.86Z" fill="#FDCCBE"/>
<path fill-rule="evenodd" clip-rule="evenodd" d="M234.81 213.731C234.93 213.701 235.26 214.001 235.46 214.101C235.21 213.991 234.9 213.931 234.81 213.731Z" fill="#FDCCBE"/>
<path fill-rule="evenodd" clip-rule="evenodd" d="M236.06 214.211C236.14 214.121 236.44 214.371 236.66 214.491C236.56 214.621 236.22 214.301 236.06 214.211Z" fill="#FDCCBE"/>
<path fill-rule="evenodd" clip-rule="evenodd" d="M236.45 214.69C236.31 214.53 236.88 214.92 236.98 214.93C236.96 214.96 236.94 215 236.92 215.03C237.36 215.37 237.51 215.25 237.94 215.56C237.52 215.62 236.85 215.03 236.44 214.69H236.45Z" fill="#FDCCBE"/>
<path fill-rule="evenodd" clip-rule="evenodd" d="M236.71 214.571C236.77 214.451 237.03 214.631 237.26 214.771C237.1 214.741 236.91 214.661 236.71 214.571Z" fill="#FDCCBE"/>
<path fill-rule="evenodd" clip-rule="evenodd" d="M237.04 214.82C237.34 214.88 237.75 215.08 237.97 215.34C237.76 215.34 237.53 215.04 237.04 214.82Z" fill="#FDCCBE"/>
<path fill-rule="evenodd" clip-rule="evenodd" d="M240.29 209.25C240.36 209.18 240.61 209.42 240.63 209.28C240.69 209.31 240.68 209.33 240.68 209.35L240.81 209.43C240.7 209.48 240.49 209.36 240.29 209.25Z" fill="#FDCCBE"/>
<path fill-rule="evenodd" clip-rule="evenodd" d="M241.04 209.98C241.14 209.95 241.3 210 241.5 210.12C241.4 210.15 241.24 210.11 241.04 209.98Z" fill="#FDCCBE"/>
<path fill-rule="evenodd" clip-rule="evenodd" d="M243.5 206.16C243.75 206.2 244.04 206.43 244.22 206.55C244.07 206.56 243.72 206.27 243.5 206.16Z" fill="#FDCCBE"/>
<path fill-rule="evenodd" clip-rule="evenodd" d="M238.689 216.09C239.049 216.12 239.369 216.47 239.519 216.62C239.309 216.59 239.029 216.25 238.689 216.09Z" fill="#FDCCBE"/>
<path fill-rule="evenodd" clip-rule="evenodd" d="M243.02 211.061C242.92 210.901 242.77 210.951 242.55 210.791C242.56 210.681 243.07 211.011 242.89 210.811C242.98 210.761 243.27 211.021 243.45 211.091C243.32 211.101 243.09 210.971 243.02 211.071V211.061Z" fill="#FDCCBE"/>
<path fill-rule="evenodd" clip-rule="evenodd" d="M245.46 207.4C245.46 207.4 245.66 207.46 245.9 207.59C246.14 207.72 246.39 207.88 246.36 207.95C246.14 207.8 245.87 207.64 245.46 207.4Z" fill="#FDCCBE"/>
<path fill-rule="evenodd" clip-rule="evenodd" d="M245.399 212.23C245.519 212.23 245.799 212.33 245.899 212.46C245.829 212.52 245.559 212.29 245.399 212.23Z" fill="#FDCCBE"/>
<path fill-rule="evenodd" clip-rule="evenodd" d="M242.42 218.52C242.53 218.37 242.84 218.72 242.84 218.79C242.66 218.83 242.7 218.6 242.42 218.52Z" fill="#FDCCBE"/>
<path fill-rule="evenodd" clip-rule="evenodd" d="M246.709 220.77C246.509 220.61 247.159 220.93 247.149 220.99C246.969 221.09 246.999 220.87 246.709 220.77Z" fill="#FDCCBE"/>
<path fill-rule="evenodd" clip-rule="evenodd" d="M246.869 220.42C246.869 220.42 247.089 220.52 247.119 220.46C247.199 220.58 247.999 220.89 247.819 220.89C247.499 220.73 247.179 220.58 246.869 220.42Z" fill="#FDCCBE"/>
<path fill-rule="evenodd" clip-rule="evenodd" d="M250.56 222.8C250.69 222.76 251.74 223.23 251.72 223.42C251.37 223.21 251.05 223.01 250.56 222.8Z" fill="#FDCCBE"/>
<path fill-rule="evenodd" clip-rule="evenodd" d="M255.06 217.76C254.73 217.78 254.07 217.25 255.06 217.76V217.76Z" fill="#FDCCBE"/>
<path fill-rule="evenodd" clip-rule="evenodd" d="M254.33 224.87C254.64 224.78 255.03 225.04 255.5 225.28C255.19 225.35 254.72 224.94 254.33 224.87Z" fill="#FDCCBE"/>
<path fill-rule="evenodd" clip-rule="evenodd" d="M258.05 220.03C258.13 220 258.2 219.96 258.38 220.04C258.52 220.19 258.3 220.17 258.28 220.29C257.91 220.14 258.31 220.16 258.05 220.02V220.03Z" fill="#FDCCBE"/>
<path fill-rule="evenodd" clip-rule="evenodd" d="M262.81 221.94C262.87 221.87 263.18 222.06 263.34 222.1C263.23 222.22 263.03 222.02 262.81 221.94Z" fill="#FDCCBE"/>
<path fill-rule="evenodd" clip-rule="evenodd" d="M260.899 227.74C260.939 227.69 261.519 227.8 261.439 227.94C261.209 227.8 261.179 227.84 260.899 227.74Z" fill="#FDCCBE"/>
<path fill-rule="evenodd" clip-rule="evenodd" d="M263.819 220.211C263.819 220.071 264.409 220.381 264.309 220.471C264.029 220.401 264.059 220.291 263.819 220.211Z" fill="#FDCCBE"/>
<path fill-rule="evenodd" clip-rule="evenodd" d="M261.76 228.021C262.43 228.101 262.37 228.151 263.27 228.441C262.96 228.501 262.32 228.231 261.76 228.021Z" fill="#FDCCBE"/>
<path fill-rule="evenodd" clip-rule="evenodd" d="M263.01 229.24C263.19 229.21 263.3 229.5 263.69 229.56C263.47 229.59 263.08 229.34 263.01 229.24Z" fill="#FDCCBE"/>
<path fill-rule="evenodd" clip-rule="evenodd" d="M263.83 229.66C263.88 229.59 264.13 229.73 264.18 229.66C264.28 229.71 264.22 229.78 264.21 229.84C264.13 229.78 264.02 229.72 263.83 229.67V229.66Z" fill="#FDCCBE"/>
<path fill-rule="evenodd" clip-rule="evenodd" d="M264.229 228.68C264.459 228.93 264.959 229.01 265.449 229.18C265.129 229.2 264.279 229.02 264.229 228.68Z" fill="#FDCCBE"/>
<path fill-rule="evenodd" clip-rule="evenodd" d="M262.06 237.061C262.03 236.911 262.35 237.091 262.4 237.131C263.17 237.381 262.09 237.131 262.06 237.061Z" fill="#FDCCBE"/>
<path fill-rule="evenodd" clip-rule="evenodd" d="M266.7 223.491C266.5 223.361 266.84 223.371 267.03 223.481C267.1 223.671 266.7 223.381 266.7 223.491Z" fill="#FDCCBE"/>
<path fill-rule="evenodd" clip-rule="evenodd" d="M266.88 228.14C266.95 227.98 267.45 228.14 267.69 228.28C267.49 228.37 267.16 228.09 266.88 228.14Z" fill="#FDCCBE"/>
<path fill-rule="evenodd" clip-rule="evenodd" d="M266.83 229.14C266.88 229.12 267.06 229.15 266.93 229.09C267.04 229.02 267.27 229.23 267.21 229.3C267.13 229.3 267.02 229.28 266.89 229.24C266.92 229.2 266.89 229.17 266.83 229.14Z" fill="#FDCCBE"/>
<path fill-rule="evenodd" clip-rule="evenodd" d="M268.559 228.18C268.339 228.05 269.019 228.26 269.029 228.32C269.029 228.36 268.989 228.35 268.939 228.33C268.879 228.3 268.859 228.33 268.849 228.34C268.729 228.29 268.819 228.2 268.559 228.17V228.18Z" fill="#FDCCBE"/>
<path fill-rule="evenodd" clip-rule="evenodd" d="M270.679 224.78C270.539 224.66 271.24 224.92 271.45 224.97C271.22 225.02 271.069 224.87 270.679 224.78Z" fill="#FDCCBE"/>
<path fill-rule="evenodd" clip-rule="evenodd" d="M271.14 226.7C271.24 226.73 271.34 226.76 271.45 226.79C271.47 226.95 271.04 226.83 271.14 226.7Z" fill="#FDCCBE"/>
<path fill-rule="evenodd" clip-rule="evenodd" d="M272.699 227.07C272.899 226.9 273.209 227.27 273.549 227.31C273.479 227.33 273.299 227.29 273.119 227.24C272.939 227.19 272.769 227.12 272.709 227.07H272.699Z" fill="#FDCCBE"/>
<path fill-rule="evenodd" clip-rule="evenodd" d="M272.61 233.78C272.85 233.84 272.84 233.93 273.08 233.99C273.04 234.11 272.55 233.9 272.61 233.78Z" fill="#FDCCBE"/>
<path fill-rule="evenodd" clip-rule="evenodd" d="M276.38 229.62C276.51 229.53 276.93 229.65 277.1 229.72C276.93 229.75 276.6 229.64 276.38 229.62Z" fill="#FDCCBE"/>
<path fill-rule="evenodd" clip-rule="evenodd" d="M277.55 229.91C277.65 229.8 278.24 230.09 278.59 230.08C278.43 230.16 277.69 229.96 277.55 229.91Z" fill="#FDCCBE"/>
<path fill-rule="evenodd" clip-rule="evenodd" d="M278.14 235.56C278.27 235.5 278.75 235.67 278.61 235.79C278.33 235.74 278.51 235.59 278.14 235.56Z" fill="#FDCCBE"/>
<path fill-rule="evenodd" clip-rule="evenodd" d="M279.459 230.68C279.549 230.56 279.949 230.68 280.269 230.74C280.309 230.85 279.719 230.69 279.999 230.84C279.879 230.91 279.659 230.71 279.449 230.68H279.459Z" fill="#FDCCBE"/>
<path fill-rule="evenodd" clip-rule="evenodd" d="M280.91 230.84C281.05 230.95 280.86 230.91 280.8 230.98C280.67 230.91 280.38 230.89 280.43 230.78C280.49 230.81 280.55 230.85 280.66 230.87C280.75 230.87 280.76 230.8 280.91 230.85V230.84Z" fill="#FDCCBE"/>
<path fill-rule="evenodd" clip-rule="evenodd" d="M280.83 230.78C281.07 230.72 281.3 231.01 281.62 230.95C281.49 231.12 280.94 230.92 280.83 230.78Z" fill="#FDCCBE"/>
<path fill-rule="evenodd" clip-rule="evenodd" d="M412.19 200.61C412.72 200.37 413.23 199.68 413.72 199.61C413.57 199.7 413.27 199.96 412.97 200.19C412.67 200.43 412.35 200.63 412.18 200.6L412.19 200.61Z" fill="#FDCCBE"/>
<path fill-rule="evenodd" clip-rule="evenodd" d="M413.519 198.34C413.469 198.22 413.449 198.09 413.659 197.88C413.729 197.95 413.839 198.01 413.799 198.13C413.719 198.16 413.629 198.23 413.529 198.34H413.519Z" fill="#FDCCBE"/>
<path fill-rule="evenodd" clip-rule="evenodd" d="M415.859 193.03C416.059 192.67 416.549 192.41 416.819 192.21C416.619 192.56 416.189 192.65 415.859 193.03Z" fill="#FDCCBE"/>
<path fill-rule="evenodd" clip-rule="evenodd" d="M422.989 184.2C422.969 184.13 422.989 184.05 422.989 183.98C423.179 183.89 423.419 183.69 423.419 183.91C423.249 184.1 423.139 184.1 422.999 184.21L422.989 184.2Z" fill="#FDCCBE"/>
<path fill-rule="evenodd" clip-rule="evenodd" d="M234.58 210.55L234.25 210.32C234.25 210.32 234.32 210.24 234.25 210.18C234.37 210.23 234.42 210.15 234.58 210.27C234.42 210.37 234.93 210.91 234.43 210.64C234.5 210.64 234.55 210.62 234.58 210.56V210.55Z" fill="#FDCCBE"/>
<path fill-rule="evenodd" clip-rule="evenodd" d="M244.85 220.65C245.21 220.73 245.88 221.13 245.99 221.32C245.73 221.17 245.26 220.89 244.85 220.65Z" fill="#FDCCBE"/>
<path fill-rule="evenodd" clip-rule="evenodd" d="M248.96 221.96C248.81 221.87 248.79 221.77 248.55 221.68C248.68 221.62 248.8 221.51 248.43 221.36C248.66 221.41 248.94 221.52 249.16 221.54C249.02 221.65 249.29 221.94 248.88 221.75C248.88 221.89 249.06 221.89 249.23 221.96C249.45 222.12 248.92 221.83 248.96 221.96Z" fill="#FDCCBE"/>
<path fill-rule="evenodd" clip-rule="evenodd" d="M252.109 225.29C252.149 225.06 252.849 225.3 252.839 225.48C252.219 225.13 252.519 225.37 252.109 225.29Z" fill="#FDCCBE"/>
<path fill-rule="evenodd" clip-rule="evenodd" d="M253.72 224.39C253.67 224.5 253.19 224.26 253.1 224.16C253.15 224.12 253.26 224.16 253.29 224.12C253.29 224.21 253.34 224.29 253.71 224.39H253.72Z" fill="#FDCCBE"/>
<path fill-rule="evenodd" clip-rule="evenodd" d="M263.319 228.53C263.439 228.53 264.049 228.61 264.019 228.77C263.709 228.62 263.679 228.64 263.319 228.53Z" fill="#FDCCBE"/>
<path fill-rule="evenodd" clip-rule="evenodd" d="M268.05 217.92C268.14 217.9 268.85 218.27 269.07 218.22C269.15 218.32 268.93 218.27 268.67 218.18C268.41 218.09 268.12 217.97 268.05 217.92Z" fill="#FDCCBE"/>
<path fill-rule="evenodd" clip-rule="evenodd" d="M270.319 228.8C270.469 228.8 270.559 228.73 270.819 228.83C270.789 228.93 271.039 228.98 270.999 229.09C270.799 228.94 270.669 228.85 270.319 228.81V228.8Z" fill="#FDCCBE"/>
<path fill-rule="evenodd" clip-rule="evenodd" d="M274.68 227.701C274.4 227.651 274.52 227.521 274.25 227.461C274.33 227.391 274.74 227.551 274.62 227.641C274.72 227.641 274.79 227.641 274.8 227.571C275.09 227.701 274.83 227.701 274.69 227.701H274.68Z" fill="#FDCCBE"/>
<path fill-rule="evenodd" clip-rule="evenodd" d="M413.239 199.491C413.349 199.401 413.669 199.061 413.899 199.061C413.569 199.301 413.529 199.371 413.239 199.491Z" fill="#FDCCBE"/>
<path fill-rule="evenodd" clip-rule="evenodd" d="M413.699 199.58C413.739 199.37 413.999 199.37 414.119 199.28C414.599 198.91 413.809 199.59 413.699 199.58Z" fill="#FDCCBE"/>
<path fill-rule="evenodd" clip-rule="evenodd" d="M415.489 192.57C415.599 192.47 415.579 192.41 415.689 192.3C415.799 192.4 415.349 192.85 415.249 192.92C415.449 192.58 415.079 192.83 414.959 192.77C415.019 192.55 415.159 192.28 414.909 192.38C415.169 192.2 415.449 191.97 415.659 191.94C415.379 192.18 415.059 192.48 415.479 192.57H415.489Z" fill="#FDCCBE"/>
<path fill-rule="evenodd" clip-rule="evenodd" d="M421.28 185.59C420.99 185.79 421.16 185.77 421.31 185.73C421.16 185.63 421.64 185.281 421.88 184.911C421.97 184.931 422.1 184.831 422.17 184.941C422 185.141 421.46 185.541 421.73 185.661C421.57 185.941 421.31 186.261 421.06 186.571C420.81 186.881 420.57 187.191 420.48 187.441C420.96 187.501 421.23 186.961 421.55 186.381C421.62 186.521 421.8 186.3 421.92 186.26C421.96 186.86 421 187.411 420.46 187.861C420.56 187.681 420.23 187.891 420.37 187.671C419.88 187.841 419.29 188.34 418.86 188.34C418.71 188.48 418.79 188.521 418.61 188.671C418.56 188.591 418.49 188.581 418.41 188.601C418.27 188.861 418.03 189.171 417.98 188.891C417.89 189.001 417.67 189.17 417.81 189.18C417.68 189.25 417.58 189.2 417.44 189.29C417.22 189.45 417.49 189.421 417.27 189.581C417.08 189.511 416.73 189.941 416.55 189.831C416.47 190.011 416.29 190.151 416.09 190.241C415.89 190.331 415.68 190.371 415.54 190.381C415.79 189.881 416.14 189.591 416.55 189.301C416.96 189.011 417.44 188.72 417.94 188.18C418.12 188.35 418.47 188.061 418.74 187.671C418.86 187.591 418.95 187.611 419.03 187.701C419.22 187.471 419.4 187.31 419.56 187.18C419.75 186.81 419.87 186.471 420.06 186.081C420.15 185.891 420.26 185.691 420.4 185.471C420.54 185.251 420.71 185.011 420.92 184.751C421.1 184.751 421.08 184.671 421.28 184.521C421.11 184.871 421.09 185.16 421 185.48C421.11 185.43 421.18 185.531 421.26 185.601L421.28 185.59Z" fill="#FDCCBE"/>
<path fill-rule="evenodd" clip-rule="evenodd" d="M244.43 217.62C244.5 217.62 244.55 217.581 244.57 217.521C244.87 217.711 245 217.671 245.3 217.861C245.2 217.911 245.26 218.131 245.37 218.071C245.52 218.211 244.97 218.071 245.52 218.321C245.44 218.451 245.03 218.131 244.98 218.301C244.87 217.991 244.76 217.891 244.42 217.611L244.43 217.62Z" fill="#FDCCBE"/>
<path d="M237.96 75.8596V86.3696C244.87 89.1596 252.51 84.2996 256.57 81.0396V73.5996L245.45 74.4096L237.95 75.8596H237.96Z" fill="#3EA2FF"/>
<path d="M279.64 51.3896C277.45 46.7296 273.57 48.9696 271.62 50.5296C271.21 35.0496 259.96 22.6396 246.12 22.6396C232.28 22.6396 220.6 35.5096 220.6 51.3896C220.6 67.2696 232.02 80.1396 246.12 80.1396C257.55 80.1396 267.22 71.6696 270.47 59.9996C274.16 64.7896 282.96 58.4697 279.63 51.3896H279.64Z" fill="white" stroke="#3EA2FF" stroke-linecap="round" stroke-linejoin="round"/>
<path d="M271.6 46.2996C270.92 33.1196 259.75 22.6396 246.08 22.6396C232.41 22.6396 221.58 32.8197 220.6 45.7197C224.04 43.9396 226.07 37.3997 226.07 37.3997C227.96 36.4097 234.2 36.5396 240.36 36.1196C242.8 35.9496 249.8 30.5096 249.8 30.5096C249.09 34.2696 246.08 36.1796 246.08 36.1796L254.75 36.4596C257.43 35.3796 258.54 31.3496 258.54 31.3496C259.08 34.4396 271.64 47.5696 271.64 47.5696L271.61 46.2996H271.6Z" fill="#3EA2FF"/>
<path d="M217.73 69.4802C228.566 69.4802 237.35 60.6961 237.35 49.8602C237.35 39.0244 228.566 30.2402 217.73 30.2402C206.895 30.2402 198.11 39.0244 198.11 49.8602C198.11 60.6961 206.895 69.4802 217.73 69.4802Z" fill="white" stroke="#3EA2FF" stroke-width="0.5" stroke-miterlimit="10"/>
<path d="M203.886 65.8492L181.722 105.506C181.407 106.07 181.609 106.783 182.173 107.098L187.463 110.055C188.027 110.37 188.739 110.168 189.055 109.604L211.218 69.9472C211.533 69.3831 211.332 68.6703 210.768 68.3551L205.478 65.3987C204.914 65.0834 204.201 65.2851 203.886 65.8492Z" fill="#FFCE00"/>
<path d="M217.69 71.5105C214.04 71.5105 210.44 70.5805 207.16 68.7505C202.11 65.9305 198.47 61.3105 196.89 55.7505C195.32 50.1905 196 44.3505 198.82 39.3005C201.64 34.2505 206.26 30.6105 211.82 29.0305C217.38 27.4605 223.23 28.1405 228.27 30.9605C233.32 33.7805 236.96 38.4005 238.54 43.9605C240.11 49.5205 239.43 55.3605 236.61 60.4105C233.79 65.4605 229.17 69.1005 223.61 70.6805C221.65 71.2305 219.66 71.5105 217.68 71.5105H217.69ZM202.36 41.2705C200.07 45.3705 199.51 50.1205 200.79 54.6505C202.07 59.1705 205.03 62.9305 209.14 65.2205C211.8 66.7105 214.73 67.4605 217.7 67.4605C219.31 67.4605 220.93 67.2405 222.52 66.7905C227.04 65.5105 230.8 62.5505 233.09 58.4405C235.38 54.3405 235.94 49.5905 234.66 45.0605C233.38 40.5405 230.42 36.7805 226.31 34.4905C222.21 32.2005 217.46 31.6405 212.93 32.9205C208.41 34.2005 204.65 37.1605 202.36 41.2705Z" fill="#FFCE00"/>
<path d="M312.69 270.2L293.06 196.11L207.37 202.09L189.5 270.2H312.69Z" fill="#3EA2FF"/>
<path d="M183.35 128.38L190.99 119.82C190.99 119.82 199.38 119.3 204.4 109.36C207.23 103.75 206.87 97.7301 209.32 91.0201C210.11 88.8501 210.93 86.4301 211.53 84.6401C212.04 83.1201 211.39 81.4501 209.99 80.6801C207.9 79.5301 205.28 80.2501 204.06 82.3001C201.71 86.2601 197.7 94.1301 197.2 97.9401" fill="white"/>
<path d="M183.35 128.38L190.99 119.82C190.99 119.82 199.38 119.3 204.4 109.36C207.23 103.75 206.87 97.7301 209.32 91.0201C210.11 88.8501 210.93 86.4301 211.53 84.6401C212.04 83.1201 211.39 81.4501 209.99 80.6801C207.9 79.5301 205.28 80.2501 204.06 82.3001C201.71 86.2601 197.7 94.1301 197.2 97.9401" stroke="#3EA2FF" stroke-miterlimit="10"/>
<path d="M197.21 97.9404C197.19 98.1204 197.14 98.3104 197.08 98.5104L197.21 97.9404Z" fill="white"/>
<path d="M197.21 97.9404C197.19 98.1204 197.14 98.3104 197.08 98.5104" stroke="#3EA2FF" stroke-miterlimit="10"/>
<path d="M236.01 209.64C233.89 209.64 232.17 207.92 232.17 205.8C232.17 203.68 233.89 201.96 236.01 201.96C238.13 201.96 239.85 203.68 239.85 205.8C239.85 207.92 238.13 209.64 236.01 209.64ZM236.01 202.76C234.34 202.76 232.98 204.12 232.98 205.79C232.98 207.46 234.34 208.82 236.01 208.82C237.68 208.82 239.04 207.46 239.04 205.79C239.04 204.12 237.68 202.76 236.01 202.76Z" fill="white"/>
<path d="M301.71 131.33C301.71 131.33 301.68 131.33 301.67 131.33C301.52 131.31 301.41 131.16 301.43 131.01C303.13 119.58 308.55 109.46 317.56 100.93C317.67 100.82 317.85 100.83 317.96 100.94C318.07 101.05 318.06 101.23 317.95 101.34C309.04 109.78 303.68 119.79 302 131.09C301.98 131.23 301.86 131.33 301.72 131.33H301.71Z" fill="#3EA2FF"/>
<path d="M310.74 173.84C310.65 173.84 310.55 173.79 310.5 173.71C310.45 173.63 305.57 165.71 302.79 154.39C302.75 154.24 302.85 154.08 303 154.05C303.15 154.01 303.31 154.11 303.34 154.26C306.1 165.49 310.93 173.34 310.98 173.42C311.06 173.55 311.02 173.73 310.89 173.81C310.84 173.84 310.79 173.85 310.74 173.85V173.84Z" fill="#3EA2FF"/>
<path d="M234.39 194.39C234.23 194.39 234.11 194.26 234.11 194.11C234.11 179.58 234.52 158.05 236.5 138.03C237.68 126.05 238.88 120.21 238.89 120.16C238.92 120.01 239.07 119.91 239.22 119.94C239.37 119.97 239.47 120.12 239.44 120.27C239.43 120.33 238.24 126.14 237.06 138.1C235.97 149.14 234.68 167.81 234.68 194.11C234.68 194.27 234.55 194.39 234.4 194.39H234.39Z" fill="#3EA2FF"/>
<path d="M192.63 83.1697L188.2 72.4597C187.33 70.3497 188.33 67.9397 190.44 67.0697C192.55 66.1997 194.96 67.1997 195.83 69.3097L200.26 80.0197C201.13 82.1297 200.13 84.5397 198.02 85.4097C195.91 86.2798 193.5 85.2797 192.63 83.1697Z" fill="white" stroke="#3EA2FF" stroke-miterlimit="10"/>
<path d="M295.15 209.21C295.14 208.99 294.95 208.81 294.72 208.83L204.37 213.53L204.15 214.35L294.76 209.64C294.98 209.63 295.15 209.44 295.14 209.21H295.15Z" fill="white"/>
<path d="M188.7 94.2003L181.6 81.6103C180.41 79.5003 181.28 76.8303 183.48 75.8203L184.61 75.3003C186.69 74.3503 189.13 75.2703 190.08 77.3503L196.05 90.4603C197 92.5403 196.08 94.9803 194.01 95.9303C192.06 96.8203 189.75 96.0703 188.7 94.2003Z" fill="white" stroke="#3EA2FF" stroke-miterlimit="10"/>
<path d="M304.35 208.1C304.35 208.1 303.99 206.02 302.97 203.43C301.24 199.03 296.21 196.94 291.86 198.78L280.25 203.69C278.81 204.3 278.25 206.06 279.08 207.38C279.6 208.22 280.37 208.85 281.24 209.21C282.29 209.65 283.46 209.66 284.54 209.3L292.58 206.57L304.36 208.09L304.35 208.1Z" fill="#FBFBFB"/>
<path d="M182.4 99.1605L177.21 90.4505C176.04 88.4905 176.69 85.9605 178.64 84.8005C180.6 83.6305 183.13 84.2805 184.29 86.2305L189.48 94.9405C190.65 96.9005 190 99.4305 188.05 100.59C186.09 101.76 183.56 101.11 182.4 99.1605Z" fill="white" stroke="#3EA2FF" stroke-miterlimit="10"/>
<path d="M305.86 219.22L306.87 214.32C307.01 213.62 307.01 212.9 306.84 212.2C306.13 209.3 303.85 206.99 300.88 206.28L298.6 205.74C295.35 204.97 291.93 205.8 289.39 207.96L281.72 214.46C278.02 217.6 281.78 221.06 285.77 220.49C286.19 220.43 286.59 220.34 286.96 220.23C290.42 219.21 296.55 214.04 296.55 214.04L305.86 219.21V219.22Z" fill="#FBFBFB"/>
<path d="M306.97 222.31C306.97 222.31 306.99 215.41 305.27 213.45C302.37 210.12 297.37 209.83 294.23 212.78L285.84 220.66C284.8 221.64 284.89 223.35 286.03 224.26C286.75 224.84 287.61 225.16 288.47 225.21C289.51 225.27 290.53 224.92 291.33 224.27L297.35 219.41L306.96 222.32L306.97 222.31Z" fill="#FBFBFB"/>
<path d="M307.09 220.79C305.16 216.97 300.86 215.97 298.05 218.31L290.54 224.57C289.61 225.35 289.55 227.03 290.42 228.1C290.97 228.78 291.65 229.23 292.36 229.42C293.21 229.65 294.08 229.48 294.79 228.98L298.49 226.09C303.69 222.46 302.15 225.21 305.23 231.51C305.23 231.51 309.57 225.69 307.1 220.78L307.09 220.79Z" fill="#FBFBFB"/>
<path d="M327.9 186.1C327.83 186.1 327.76 186.07 327.71 186.02C327.6 185.91 327.59 185.73 327.7 185.62C327.74 185.58 331.31 181.79 337.31 177.8C340.83 175.45 344.49 173.49 348.19 171.96C352.81 170.05 357.51 168.84 362.14 168.34C362.3 168.32 362.44 168.44 362.45 168.59C362.47 168.75 362.35 168.89 362.2 168.9C357.62 169.39 352.98 170.6 348.41 172.48C344.75 173.99 341.12 175.93 337.63 178.26C332.87 181.43 329.32 184.72 328.11 186.01C328.05 186.07 327.98 186.1 327.9 186.1Z" fill="#3EA2FF"/>
<path d="M328.45 183.72C328.45 183.72 328.4 183.72 328.37 183.71C328.22 183.67 328.13 183.51 328.18 183.36L331.93 170.58C331.97 170.43 332.13 170.34 332.28 170.39C332.43 170.43 332.52 170.59 332.47 170.74L328.72 183.52C328.68 183.64 328.57 183.72 328.45 183.72Z" fill="#3EA2FF"/>
<path d="M169.18 116.27L161.26 123.15C161.26 123.15 150.73 117.08 128.06 138.15C123.25 142.62 118.51 148.49 114.34 154.32C105.38 166.84 107.71 184.16 119.66 193.86C127.13 199.93 137.4 201.22 146.15 197.19L191.85 176.13L189.43 126.72C189.43 126.72 173.3 132.05 169.19 116.27H169.18Z" fill="#FDCCBE"/>
<path d="M153.18 188.03C153.11 188.03 153.03 188 152.98 187.94C152.87 187.83 152.87 187.65 152.98 187.54C153.02 187.51 156.58 184.02 160.85 179.34C164.79 175.02 170.16 168.78 173.36 163.53C175.24 160.45 176.51 157.21 177.15 153.88C177.66 151.22 177.76 148.5 177.46 145.79C176.94 141.18 175.39 138.18 175.38 138.15C175.33 138.05 175.34 137.93 175.41 137.84L184.17 126.91C184.27 126.79 184.45 126.77 184.57 126.87C184.69 126.97 184.71 127.15 184.61 127.27L175.97 138.06C176.31 138.76 177.56 141.57 178.03 145.71C178.34 148.47 178.24 151.25 177.72 153.98C177.07 157.38 175.77 160.7 173.86 163.84C170.64 169.12 165.24 175.4 161.28 179.73C157 184.42 153.43 187.92 153.39 187.95C153.33 188 153.26 188.03 153.19 188.03H153.18Z" fill="#3EA2FF"/>
<path d="M237.64 119.73L232.12 128.66C231.49 129.69 232.22 131.01 233.43 131.02L240.13 131.05C241.07 131.05 241.79 130.23 241.67 129.3L240.49 120.34C240.3 118.9 238.41 118.49 237.65 119.73H237.64Z" fill="#3EA2FF"/>
<path fill-rule="evenodd" clip-rule="evenodd" d="M249.629 116.55C249.629 116.55 249.569 116.61 249.539 116.63C249.539 116.6 249.599 116.57 249.629 116.55Z" fill="#3EA2FF"/>
<path fill-rule="evenodd" clip-rule="evenodd" d="M249.359 116.75C249.359 116.75 249.259 116.87 249.229 116.84C249.259 116.82 249.299 116.79 249.359 116.75Z" fill="#3EA2FF"/>
<path d="M224.48 262.41C224.48 262.41 224.5 262.41 224.52 262.41C224.73 262.41 224.9 262.25 224.92 262.04L230.31 200.49L229.49 200.55L224.12 261.97C224.1 262.19 224.27 262.39 224.49 262.41H224.48Z" fill="white"/>
<path d="M239.78 241.81C240 241.83 240.2 241.66 240.22 241.44L243.89 199.55L243.07 199.61L239.42 241.38C239.4 241.6 239.57 241.8 239.79 241.82L239.78 241.81Z" fill="white"/>
<path d="M176.79 103.07L171.63 97.5903C170.31 96.1903 170.38 93.9903 171.78 92.6703C173.18 91.3503 175.38 91.4203 176.7 92.8203L181.86 98.3003C183.18 99.7003 183.11 101.9 181.71 103.22C180.31 104.54 178.11 104.47 176.79 103.07Z" fill="white" stroke="#3EA2FF" stroke-miterlimit="10"/>
<path d="M290.42 228.26C290.42 228.26 290.33 228.24 290.29 228.2C289.37 227.06 289.44 225.27 290.43 224.44L297.94 218.18C299.25 217.09 300.97 216.66 302.65 217.01C304.58 217.41 306.25 218.76 307.23 220.71C307.27 220.79 307.23 220.89 307.16 220.93C307.08 220.97 306.98 220.93 306.94 220.86C306 219 304.41 217.71 302.58 217.33C300.97 217 299.4 217.39 298.14 218.44L290.63 224.7C289.76 225.42 289.72 227 290.53 228C290.59 228.07 290.58 228.17 290.51 228.23C290.48 228.25 290.44 228.27 290.41 228.27L290.42 228.26Z" fill="#3EA2FF"/>
<path d="M285.85 220.82C285.85 220.82 285.76 220.8 285.73 220.77C285.67 220.7 285.67 220.6 285.73 220.54L294.12 212.66C296.04 210.86 299.17 210.13 301.74 210.88C303.45 211.38 305.68 212.74 306.58 216.37C306.6 216.46 306.55 216.54 306.46 216.57C306.37 216.59 306.29 216.54 306.26 216.45C305.39 212.97 303.27 211.67 301.64 211.19C299.17 210.47 296.17 211.17 294.33 212.89L285.94 220.77C285.94 220.77 285.87 220.81 285.83 220.81L285.85 220.82Z" fill="#3EA2FF"/>
<path d="M304.35 208.26C304.35 208.26 304.3 208.26 304.28 208.24C304.25 208.22 300.8 206.43 298.57 205.9C295.29 205.13 292.07 205.9 289.5 208.08C289.43 208.14 289.33 208.13 289.27 208.06C289.21 207.99 289.22 207.89 289.29 207.83C291.94 205.58 295.26 204.78 298.65 205.58C300.93 206.12 304.3 207.87 304.44 207.95C304.52 207.99 304.55 208.09 304.51 208.17C304.48 208.23 304.42 208.26 304.37 208.26H304.35Z" fill="#3EA2FF"/>
<path d="M217.73 55.4899C221.27 55.4899 224.14 52.6201 224.14 49.0799C224.14 45.5398 221.27 42.6699 217.73 42.6699C214.19 42.6699 211.32 45.5398 211.32 49.0799C211.32 52.6201 214.19 55.4899 217.73 55.4899Z" fill="#3EA2FF"/>
<path d="M219.52 49.86C220.724 49.86 221.7 48.884 221.7 47.68C221.7 46.476 220.724 45.5 219.52 45.5C218.316 45.5 217.34 46.476 217.34 47.68C217.34 48.884 218.316 49.86 219.52 49.86Z" fill="white"/>
<path d="M215.97 52.4901C216.556 52.4901 217.03 52.0155 217.03 51.4301C217.03 50.8447 216.556 50.3701 215.97 50.3701C215.385 50.3701 214.91 50.8447 214.91 51.4301C214.91 52.0155 215.385 52.4901 215.97 52.4901Z" fill="white"/>
<path d="M271.47 56.6303C271.47 56.6303 273.19 52.2303 277.34 52.5303L271.47 56.6303Z" fill="white"/>
<path d="M271.47 56.6303C271.47 56.6303 273.19 52.2303 277.34 52.5303" stroke="#3EA2FF" stroke-linecap="round" stroke-linejoin="round"/>
<path d="M274.47 57.2198L272.35 55.2998" stroke="#3EA2FF" stroke-linecap="round" stroke-linejoin="round"/>
<path d="M249.78 41.1704C249.78 41.1704 254.17 37.6404 260.08 40.0304L249.78 41.1704Z" fill="white"/>
<path d="M249.78 41.1704C249.78 41.1704 254.17 37.6404 260.08 40.0304" stroke="#3EA2FF" stroke-linecap="round" stroke-linejoin="round"/>
<path d="M241.14 63.2302C241.14 63.2302 247.02 65.0102 252.72 59.9502L241.14 63.2302Z" fill="white"/>
<path d="M241.14 63.2302C241.14 63.2302 247.02 65.0102 252.72 59.9502" stroke="#3EA2FF" stroke-linecap="round" stroke-linejoin="round"/>
<path d="M244.97 46.0596C244.97 46.0596 242.35 52.2896 244.97 57.5496V46.0596Z" fill="white"/>
<path d="M244.97 46.0596C244.97 46.0596 242.35 52.2896 244.97 57.5496" stroke="#3EA2FF" stroke-linecap="round" stroke-linejoin="round"/>
<path d="M251.7 47.5204C252.837 47.5204 253.76 46.5981 253.76 45.4604C253.76 44.3227 252.837 43.4004 251.7 43.4004C250.562 43.4004 249.64 44.3227 249.64 45.4604C249.64 46.5981 250.562 47.5204 251.7 47.5204Z" fill="#3EA2FF"/>
<path d="M258.74 50.7598L256.67 54.4598" stroke="#FDCCBE" stroke-linecap="round" stroke-linejoin="round"/>
<path d="M262.26 50.7598L260.2 54.4598" stroke="#FDCCBE" stroke-linecap="round" stroke-linejoin="round"/>
<path d="M265.95 50.7598L263.88 54.4598" stroke="#FDCCBE" stroke-linecap="round" stroke-linejoin="round"/>
<path d="M416 19.8496H304.68C302.642 19.8496 300.99 21.5017 300.99 23.5396V104.68C300.99 106.718 302.642 108.37 304.68 108.37H416C418.038 108.37 419.69 106.718 419.69 104.68V23.5396C419.69 21.5017 418.038 19.8496 416 19.8496Z" fill="white" stroke="#3EA2FF" stroke-linecap="round" stroke-linejoin="round"/>
<path d="M417.05 31.9504V103.5C417.05 104.66 415.97 105.58 414.64 105.58H306.06C304.72 105.58 303.65 104.66 303.65 103.5V31.9504C303.65 31.5904 303.75 31.2604 303.92 30.9704C304.32 30.3004 305.13 29.8604 306.05 29.8604H414.63C415.95 29.8604 417.04 30.7904 417.04 31.9504H417.05Z" fill="white" stroke="#3EA2FF" stroke-linecap="round" stroke-linejoin="round"/>
<path d="M400 25.0702C400 26.2402 399.05 27.1902 397.88 27.1902C396.71 27.1902 395.76 26.2402 395.76 25.0702C395.76 23.9002 396.71 22.9502 397.88 22.9502C399.05 22.9502 400 23.9002 400 25.0702Z" fill="#3EA2FF"/>
<path d="M414.18 25.0702C414.18 26.2402 413.23 27.1902 412.06 27.1902C410.89 27.1902 409.94 26.2402 409.94 25.0702C409.94 23.9002 410.89 22.9502 412.06 22.9502C413.23 22.9502 414.18 23.9002 414.18 25.0702Z" fill="#3EA2FF"/>
<path d="M407.09 25.0702C407.09 26.2402 406.14 27.1902 404.97 27.1902C403.8 27.1902 402.85 26.2402 402.85 25.0702C402.85 23.9002 403.8 22.9502 404.97 22.9502C406.14 22.9502 407.09 23.9002 407.09 25.0702Z" fill="#3EA2FF"/>
<path d="M318.24 26.0099H306.02C305.5 26.0099 305.08 25.5899 305.08 25.0699C305.08 24.5499 305.5 24.1299 306.02 24.1299H318.24C318.76 24.1299 319.18 24.5499 319.18 25.0699C319.18 25.5899 318.76 26.0099 318.24 26.0099Z" fill="#3EA2FF"/>
<path d="M3.41992 270.2H162.83C168.4 270.2 172.91 265.69 172.91 260.12C172.91 254.55 168.4 250.04 162.83 250.04H3.41992V270.2Z" fill="#3EA2FF"/>
<path d="M3.89957 269.7C2.19957 269.7 0.80957 268.32 0.80957 266.61V253.63C0.80957 251.93 2.18957 250.54 3.89957 250.54H103C108.28 250.54 112.58 254.84 112.58 260.12C112.58 265.4 108.28 269.7 103 269.7H3.89957Z" fill="white"/>
<path d="M103 251.04C108.01 251.04 112.08 255.11 112.08 260.12C112.08 265.13 108.01 269.2 103 269.2H3.89957C2.46957 269.2 1.30957 268.04 1.30957 266.61V253.63C1.30957 252.2 2.46957 251.04 3.89957 251.04H103ZM103 250.04H3.89957C1.91957 250.04 0.30957 251.65 0.30957 253.63V266.61C0.30957 268.59 1.91957 270.2 3.89957 270.2H103C108.57 270.2 113.08 265.69 113.08 260.12C113.08 254.55 108.57 250.04 103 250.04Z" fill="#3EA2FF"/>
<path d="M150.34 250.041H29.0605C23.4905 250.041 18.9805 245.531 18.9805 239.961C18.9805 234.391 23.4905 229.881 29.0605 229.881H150.34C150.49 229.881 150.6 230.001 150.6 230.141V249.771C150.6 249.921 150.48 250.031 150.34 250.031V250.041Z" fill="#FDCCBE"/>
<path d="M152.99 250.041H58.0097C52.4397 250.041 47.9297 245.531 47.9297 239.961C47.9297 234.391 52.4397 229.881 58.0097 229.881H152.99C154.73 229.881 156.15 231.291 156.15 233.041V246.891C156.15 248.631 154.74 250.051 152.99 250.051V250.041Z" fill="white" stroke="#FDCCBE" stroke-linejoin="round"/>
<path d="M49.98 258.151H0.32C0.14 258.151 0 258.011 0 257.831C0 257.651 0.14 257.511 0.32 257.511H49.98C50.15 257.511 50.3 257.651 50.3 257.831C50.3 258.011 50.16 258.151 49.98 258.151Z" fill="#3EA2FF"/>
<path d="M26.58 262.79H0.32C0.15 262.79 0 262.65 0 262.47C0 262.29 0.14 262.15 0.32 262.15H26.58C26.76 262.15 26.9 262.29 26.9 262.47C26.9 262.65 26.76 262.79 26.58 262.79Z" fill="#3EA2FF"/>
<path d="M155.99 237.93H137.05C136.88 237.93 136.73 237.79 136.73 237.61C136.73 237.43 136.87 237.29 137.05 237.29H155.99C156.17 237.29 156.31 237.43 156.31 237.61C156.31 237.79 156.17 237.93 155.99 237.93Z" fill="#FDCCBE"/>
<path d="M156.19 242.201H129.93C129.75 242.201 129.61 242.061 129.61 241.881C129.61 241.701 129.75 241.561 129.93 241.561H156.19C156.36 241.561 156.51 241.701 156.51 241.881C156.51 242.061 156.37 242.201 156.19 242.201Z" fill="#FDCCBE"/>
<path d="M141.26 229.881L31.6298 229.881C31.4798 229.881 31.3698 229.761 31.3698 229.621V209.991C31.3698 209.841 31.4898 209.731 31.6298 209.731H141.26C146.82 209.731 151.34 214.251 151.34 219.811C151.34 225.371 146.82 229.891 141.26 229.891V229.881Z" fill="#3EA2FF"/>
<path d="M30.5301 229.381C29.0401 229.381 27.8301 228.171 27.8301 226.681V212.921C27.8301 211.431 29.0401 210.221 30.5301 210.221H120.36C125.64 210.221 129.94 214.521 129.94 219.801C129.94 225.081 125.64 229.381 120.36 229.381H30.5301Z" fill="white"/>
<path d="M120.36 210.73C125.37 210.73 129.44 214.8 129.44 219.81C129.44 224.82 125.37 228.89 120.36 228.89H30.5301C29.3201 228.89 28.3301 227.9 28.3301 226.69V212.93C28.3301 211.72 29.3201 210.73 30.5301 210.73H120.36ZM120.36 209.73H30.5301C28.7601 209.73 27.3301 211.16 27.3301 212.93V226.69C27.3301 228.46 28.7601 229.89 30.5301 229.89H120.36C125.93 229.89 130.44 225.38 130.44 219.81C130.44 214.24 125.93 209.73 120.36 209.73Z" fill="#3EA2FF"/>
<path d="M61.6298 217.781H27.3298C27.1598 217.781 27.0098 217.641 27.0098 217.461C27.0098 217.281 27.1498 217.141 27.3298 217.141H61.6298C61.8098 217.141 61.9498 217.281 61.9498 217.461C61.9498 217.641 61.8098 217.781 61.6298 217.781Z" fill="#3EA2FF"/>
<path d="M55.5198 222.04H27.3298C27.1598 222.04 27.0098 221.9 27.0098 221.72C27.0098 221.54 27.1498 221.4 27.3298 221.4H55.5098C55.6898 221.4 55.8298 221.54 55.8298 221.72C55.8298 221.9 55.6898 222.04 55.5098 222.04H55.5198Z" fill="#3EA2FF"/>
<path d="M353.721 60.6494C353.721 60.6494 353.151 61.7794 353.721 64.5494C353.841 65.1094 353.901 65.6894 353.901 66.2594C353.881 68.0594 352.991 71.9294 349.851 74.1194C349.091 74.6494 348.021 74.2894 347.751 73.3994C347.271 71.8694 346.401 69.6094 345.101 68.2894L353.731 60.6494H353.721Z" fill="#CBEEFC"/>
<path d="M339.35 47.7202C339.35 47.7202 330.4 43.8102 322.79 49.4602C321.74 50.2402 321.88 51.8502 323.07 52.4202C325.5 53.5702 329.03 55.7002 330.36 58.7302L339.36 47.7202H339.35Z" fill="#CBEEFC"/>
<path d="M369.49 44.1998C367.91 44.4798 365.71 45.3898 362.76 47.5998C362.76 47.5998 351.1 37.5598 338.19 47.6398C338.19 47.6398 316.14 67.9798 325.94 84.6298C325.94 84.6298 333.19 97.8198 349.32 91.8098C349.32 91.8098 353.7 89.8098 356.26 88.1998C356.26 88.1998 360.53 95.1298 368.81 92.7798C369.56 92.5698 369.8 91.6298 369.25 91.0698C368.45 90.2498 367.54 88.9698 367.31 87.2598C367.31 87.2598 367.15 83.4198 361.92 82.5698C361.92 82.5698 363.86 78.8198 361.67 76.2398C361.26 75.7598 360.96 75.1998 360.88 74.5798C360.85 74.3698 360.84 74.1498 360.84 73.9098C360.87 73.0898 359.95 72.5798 359.26 73.0198C356.96 74.4798 353.88 77.5198 354.53 83.0698C354.53 83.0698 348.25 86.8298 342.37 81.7898C342.37 81.7898 337.61 77.4598 342.44 71.9798C342.88 71.4798 343.38 71.0198 343.89 70.5898L359.13 57.9598C359.13 57.9598 366.52 51.6598 371 47.1298C372.19 45.9198 371.15 43.8798 369.47 44.1798L369.49 44.1998Z" fill="#CBEEFC"/>
<path d="M354.551 83.09C354.551 83.09 348.271 86.85 342.391 81.81C342.391 81.81 337.631 77.48 342.461 72C342.461 72 338.701 74.96 337.691 79.55C336.851 83.34 339.261 87.05 343.051 87.89C346.471 88.65 351.081 88.34 354.551 83.09Z" fill="white"/>
<path d="M353.25 62.8696L356.9 59.8496C356.9 59.8496 358.74 63.8396 356.99 66.7996C356.99 66.7996 354.55 68.0596 353.89 66.2596L353.25 62.8696Z" fill="#FCFCFC"/>
<path d="M327.32 55.82C327.57 55.88 327.83 55.79 328 55.59C328.24 55.3 328.2 54.86 327.91 54.62C326.66 53.59 325.13 52.64 323.36 51.79C323.02 51.63 322.81 51.33 322.77 50.96C322.73 50.59 322.89 50.24 323.19 50.01C328.33 46.2 334.12 46.93 337.11 47.71C336.7 48.12 336.09 48.73 335.36 49.53C335.1 49.81 335.12 50.24 335.4 50.5C335.68 50.76 336.11 50.74 336.37 50.46C337.61 49.12 338.49 48.29 338.63 48.16C343.78 44.15 349.31 42.91 355.08 44.48C359.42 45.67 362.28 48.09 362.31 48.11C362.55 48.32 362.91 48.33 363.17 48.14C365.65 46.28 367.82 45.18 369.61 44.87C370.16 44.77 370.54 45.09 370.71 45.42C370.89 45.75 370.93 46.26 370.52 46.67C366.12 51.12 358.77 57.39 358.7 57.45L350.4 64.32C350.11 64.56 350.07 65 350.31 65.29C350.41 65.41 350.54 65.49 350.69 65.52C350.89 65.57 351.11 65.52 351.28 65.38L352.91 64.03C352.94 64.24 352.98 64.46 353.03 64.68C353.15 65.24 353.2 65.76 353.19 66.24C353.17 67.87 352.36 71.5 349.43 73.54C349.25 73.67 349.02 73.7 348.81 73.63C348.6 73.56 348.44 73.39 348.37 73.18C348.14 72.44 347.89 71.74 347.61 71.1C347.46 70.75 347.06 70.59 346.71 70.74C346.36 70.89 346.2 71.29 346.35 71.64C346.61 72.24 346.84 72.89 347.06 73.59C347.26 74.23 347.73 74.72 348.36 74.93C348.43 74.95 348.5 74.97 348.58 74.99C349.15 75.12 349.73 75.01 350.22 74.67C353.61 72.31 354.55 68.13 354.57 66.25C354.57 65.66 354.51 65.05 354.38 64.39C354.28 63.89 354.21 63.42 354.17 62.98L356.5 61.05C356.81 61.88 357.22 63.47 356.93 65.57C356.88 65.94 356.65 66.24 356.31 66.37C355.96 66.51 355.79 66.92 355.93 67.27C356.02 67.49 356.2 67.63 356.42 67.68C356.55 67.71 356.7 67.7 356.83 67.65C357.63 67.32 358.18 66.62 358.3 65.76C358.69 62.98 357.98 60.95 357.62 60.13L359.6 58.49C359.67 58.43 367.06 52.12 371.51 47.62C372.27 46.85 372.44 45.73 371.94 44.77C371.44 43.82 370.44 43.32 369.38 43.51C367.48 43.84 365.27 44.92 362.78 46.72C361.79 45.97 359.17 44.17 355.5 43.16C351.34 42.01 345.04 41.72 338.37 46.62C335.54 45.74 328.56 44.3 322.37 48.89C321.68 49.4 321.31 50.22 321.4 51.08C321.48 51.93 321.99 52.65 322.77 53.02C324.42 53.8 325.89 54.72 327.04 55.66C327.13 55.73 327.22 55.78 327.32 55.8V55.82Z" fill="#3EA2FF"/>
<path d="M369.75 90.5998C369.07 89.8998 368.21 88.7398 368 87.1898C367.96 86.7198 367.48 83.1998 362.89 82.0698C363.38 80.7098 364.03 77.9498 362.21 75.7998C361.85 75.3798 361.64 74.9398 361.58 74.4898C361.55 74.2998 361.54 74.1198 361.55 73.9398C361.57 73.3098 361.24 72.7198 360.69 72.4098C360.13 72.0898 359.45 72.1098 358.91 72.4498C356.78 73.8098 353.34 76.9198 353.82 82.6798C352.44 83.3398 347.49 85.2498 342.85 81.2798C342.6 81.0398 338.71 77.2798 342.98 72.4398C343.37 71.9998 343.82 71.5698 344.36 71.1198L346.89 69.0298C347.18 68.7898 347.22 68.3498 346.98 68.0598C346.74 67.7698 346.3 67.7298 346.01 67.9698L343.48 70.0598C342.91 70.5398 342.42 70.9998 342 71.4798C341.55 71.8498 338.03 74.8298 337.03 79.3798C336.78 80.5098 336.78 81.6498 337.05 82.7698C337.11 83.0398 337.32 83.2298 337.57 83.2898C337.67 83.3098 337.77 83.3098 337.88 83.2898C338.25 83.1998 338.48 82.8298 338.39 82.4598C338.18 81.5398 338.17 80.6098 338.38 79.6798C338.64 78.4898 339.11 77.4098 339.64 76.4698C339.37 79.9098 341.9 82.2698 341.94 82.3098C341.94 82.3098 341.95 82.3098 341.96 82.3198C345.19 85.0898 348.55 85.3098 350.79 85.0098C351.38 84.9298 351.93 84.8098 352.42 84.6798C350.07 87.0798 347.12 87.9598 343.63 87.2998C343.26 87.2298 342.9 87.4698 342.83 87.8498C342.76 88.2198 342.99 88.5698 343.35 88.6498C343.35 88.6498 343.37 88.6498 343.38 88.6498C346.76 89.2898 351.55 88.9098 355.15 83.4698C355.15 83.4698 355.15 83.4698 355.15 83.4598C355.17 83.4298 355.18 83.3998 355.2 83.3698C355.2 83.3598 355.2 83.3498 355.21 83.3398C355.22 83.3098 355.23 83.2798 355.24 83.2398C355.24 83.2398 355.24 83.2298 355.24 83.2198C355.24 83.1798 355.24 83.1398 355.25 83.0998C355.25 83.0898 355.25 83.0798 355.25 83.0598C355.25 83.0398 355.25 83.0298 355.25 83.0098C354.65 77.9598 357.32 75.1198 359.66 73.6298C359.82 73.5298 359.96 73.5898 360.02 73.6298C360.08 73.6698 360.19 73.7498 360.18 73.9198C360.18 74.1798 360.18 74.4398 360.22 74.7098C360.32 75.4198 360.64 76.0898 361.17 76.7198C363.03 78.9098 361.35 82.2498 361.33 82.2898C361.23 82.4898 361.23 82.7198 361.33 82.9198C361.43 83.1198 361.62 83.2598 361.83 83.2898C366.4 84.0298 366.63 87.1998 366.64 87.3298C366.64 87.3498 366.64 87.3698 366.64 87.3898C366.89 89.3198 367.94 90.7398 368.77 91.5898C368.9 91.7198 368.88 91.8698 368.86 91.9298C368.84 91.9998 368.79 92.1198 368.63 92.1598C360.97 94.3298 357.02 88.1398 356.85 87.8798C356.75 87.7198 356.6 87.6098 356.42 87.5698C356.24 87.5298 356.05 87.5598 355.9 87.6598C353.5 89.1698 349.41 91.0598 349.07 91.2098C342.63 93.5998 336.89 93.1798 332.02 89.9698C328.36 87.5498 326.57 84.3698 326.55 84.3398C326.55 84.3398 326.55 84.3298 326.55 84.3198C320.75 74.4598 326.43 63.2098 332.22 55.4998C332.45 55.1998 332.39 54.7598 332.08 54.5398C331.78 54.3098 331.34 54.3698 331.12 54.6798C327.53 59.4598 325.06 64.1398 323.77 68.5898C322.01 74.6998 322.54 80.2198 325.36 85.0098C325.49 85.2498 327.36 88.5198 331.22 91.0898C332.75 92.1098 334.73 93.0898 337.15 93.6398C340.46 94.3998 344.61 94.3498 349.58 92.4998C349.6 92.4998 349.61 92.4898 349.63 92.4798C349.8 92.3998 353.51 90.7098 356.09 89.1698C356.6 89.8298 357.59 90.9798 359.06 91.9898C361.1 93.3898 364.48 94.7798 369.02 93.4898C369.6 93.3198 370.05 92.8798 370.2 92.2898C370.36 91.6998 370.2 91.0798 369.76 90.6398L369.75 90.5998Z" fill="#3EA2FF"/>
<path d="M338.87 86.2496L338.94 86.3296C339.04 86.4296 339.16 86.4996 339.29 86.5296C339.51 86.5796 339.74 86.5296 339.92 86.3596C340.2 86.0996 340.21 85.6596 339.95 85.3896L339.89 85.3296C339.63 85.0496 339.2 85.0296 338.92 85.2896C338.64 85.5496 338.62 85.9796 338.88 86.2596L338.87 86.2496Z" fill="#3EA2FF"/>
<path d="M352.13 49.5298C352.13 49.5298 352.17 49.6098 352.19 49.6498C352.29 49.7998 352.44 49.9098 352.62 49.9498C352.8 49.9898 352.99 49.9498 353.14 49.8598C353.18 49.8398 353.21 49.8098 353.25 49.7798C353.28 49.7498 353.31 49.7198 353.34 49.6798C353.37 49.6398 353.39 49.5998 353.41 49.5598C353.43 49.5198 353.44 49.4798 353.45 49.4298C353.49 49.2498 353.45 49.0598 353.36 48.9098C353.24 48.7198 353.02 48.5898 352.8 48.5898C352.76 48.5898 352.71 48.5898 352.67 48.5898C352.63 48.5898 352.58 48.6098 352.54 48.6298C352.5 48.6498 352.46 48.6698 352.42 48.6898C352.27 48.7898 352.16 48.9398 352.12 49.1198C352.11 49.1698 352.1 49.2098 352.1 49.2598C352.1 49.2998 352.1 49.3498 352.11 49.3898C352.11 49.4398 352.13 49.4798 352.15 49.5198L352.13 49.5298Z" fill="#3EA2FF"/>
<path d="M382.45 48.5898H407.09" stroke="#3EA2FF" stroke-linecap="round" stroke-linejoin="round"/>
<path d="M382.45 54.3604H407.09" stroke="#3EA2FF" stroke-linecap="round" stroke-linejoin="round"/>
<path d="M382.45 60.3203H407.09" stroke="#3EA2FF" stroke-linecap="round" stroke-linejoin="round"/>
<path d="M382.45 66.0898H407.09" stroke="#3EA2FF" stroke-linecap="round" stroke-linejoin="round"/>
<path d="M382.45 71.8604H407.09" stroke="#3EA2FF" stroke-linecap="round" stroke-linejoin="round"/>
<path d="M382.45 77.6299H407.09" stroke="#3EA2FF" stroke-linecap="round" stroke-linejoin="round"/>
<path d="M382.45 83.5898H407.09" stroke="#3EA2FF" stroke-linecap="round" stroke-linejoin="round"/>
<path d="M361.44 94.2598H379.72" stroke="#3EA2FF" stroke-linecap="round" stroke-linejoin="round"/>
</g>
<defs>
<clipPath id="clip0_766_41338">
<rect width="423.41" height="270.2" fill="white"/>
</clipPath>
</defs>
</svg>
