<svg width="408" height="263" viewBox="0 0 408 263" fill="none" xmlns="http://www.w3.org/2000/svg">
<path d="M193.219 262.576C264.919 262.576 323.043 204.431 323.043 132.707C323.043 60.9818 264.919 2.8374 193.219 2.8374C121.519 2.8374 63.3955 60.9818 63.3955 132.707C63.3955 204.431 121.519 262.576 193.219 262.576Z" fill="#EDEDED"/>
<path d="M44.3751 94.7282L184.391 50.1515C178.401 47.1887 169.694 46.8542 163.949 50.267C163.007 50.8256 162.032 51.486 160.938 51.4555C159.889 51.4266 158.97 50.7627 158.183 50.0683C153.493 45.9271 150.669 39.6177 145.086 36.7924C137.739 33.0757 128.28 37.3289 123.826 44.2547C122.317 46.5995 121.059 49.3773 118.544 50.5794C115.799 51.8918 112.539 50.8459 109.779 49.5657C101.323 45.6419 93.6614 39.5209 84.4671 37.9843C70.8429 35.7057 57.1337 44.6163 50.3224 56.6392C43.5095 68.6603 43.5502 80.9345 44.3768 94.7282H44.3751Z" fill="white"/>
<path d="M346.857 52.1395L247.077 84.9209C253.525 80.5132 253.778 70.4395 261.141 67.8366C266.07 66.0946 272.348 68.9318 276.369 65.5886C278.803 63.5664 279.29 60.0891 279.708 56.9514C280.684 49.6164 282.571 41.7144 288.391 37.147C294.671 32.218 303.487 32.6985 311.437 33.4168C313.695 33.6205 316.032 33.8497 318.004 34.9686C320.245 36.2404 321.728 38.4952 323.68 40.1778C325.871 42.0676 328.689 43.217 331.576 43.3987C334.731 43.5991 337.842 42.6805 340.992 42.4326C344.143 42.1847 347.687 42.7994 349.622 45.2987C351.59 47.8421 347.345 48.9577 346.857 52.1378V52.1395Z" fill="white"/>
<path d="M228.086 100.455L210.359 137.498L198.551 136.771L208.29 95.3252L228.086 100.455Z" fill="#F9724D"/>
<g style="mix-blend-mode:multiply">
<path d="M217.817 111.078C217.817 111.078 211.056 119.435 205.496 122.643C205.496 122.643 208.527 127.549 207.906 130.971C207.285 134.392 207.906 130.971 207.906 130.971L199.936 126.38L201.074 117.573L217.817 111.078Z" fill="#EF92C8"/>
</g>
<path d="M203.366 79.6064C203.366 79.6064 214.438 74.4771 223.242 80.7814C232.046 87.0857 232.969 95.037 227.382 101.475L193.661 99.0372C193.661 99.0372 196.883 83.622 203.366 79.6064Z" fill="#6B51B4"/>
<path d="M227.383 101.477C227.383 101.477 234.159 92.5005 223.352 86.6648C212.545 80.8291 200.134 87.4594 196.063 95.8861C191.991 104.313 196.063 95.8861 196.063 95.8861L227.383 101.477Z" fill="#19283F"/>
<path d="M128.987 109.812L115.843 119.926C115.843 119.926 102.471 125.37 91.7139 148.348L95.4276 150.212L121.255 129.036L132.563 121.585L128.985 109.814L128.987 109.812Z" fill="#19283F"/>
<path d="M146.939 97.7283C146.939 97.7283 149.989 86.1894 170.744 83.4507C170.744 83.4507 170.276 93.4241 177.839 95.8844L198.042 79.481L203.366 79.6066C203.366 79.6066 195.469 92.5616 193.474 106.714L186.132 111.933C182.272 114.677 178.601 117.677 175.183 120.952C171.498 124.484 163.01 129.102 147.084 121.175C146.622 120.945 145.897 120.681 145.04 120.419C140.894 119.154 136.414 119.591 132.565 121.584C132.565 121.584 125.29 118.781 128.987 109.812L146.939 97.7283Z" fill="#EF92C8"/>
<path d="M177.839 95.884C177.839 95.884 170.45 102.107 162.848 103.087C157.447 103.783 148.794 100.443 152.486 90.3591C153.713 87.0074 158.54 83.7542 171.414 81.7812L177.839 95.884Z" fill="#6B51B4"/>
<path d="M150.329 95.1622C150.329 95.1622 161.558 88.5659 172.85 86.9512L174.285 90.2604C174.285 90.2604 156.782 94.9941 151.162 100.144L150.327 95.1622H150.329Z" fill="#FFD474"/>
<path d="M144.385 120.287C144.385 120.287 136.872 112.583 143.1 102.504L127.308 108.629C127.308 108.629 121.327 118.125 132.565 121.584C143.802 125.041 132.565 121.584 132.565 121.584L144.385 120.287Z" fill="#6B51B4"/>
<path d="M127.186 116.615C127.186 116.615 132.064 113.038 141.847 111.654L142.267 108.151C142.267 108.151 132.417 108.472 126.645 113.814L127.186 116.615Z" fill="#FFD474"/>
<g style="mix-blend-mode:multiply">
<path d="M180.484 93.7364C185.154 92.7737 189.007 97.4141 187.199 101.827C185.454 106.089 183.921 110.982 183.828 115.174C183.607 125.144 183.828 115.174 183.828 115.174L206.19 92.5343L206.552 76.6929C206.552 76.6929 184.955 82.3605 180.484 93.7364Z" fill="#EF92C8"/>
</g>
<path d="M152.372 125.103C152.372 125.103 157.999 119.675 160.575 109.892C160.575 109.892 167.889 111.454 174.092 109.065C174.092 109.065 171.55 121.023 164.545 127.755L152.374 125.103H152.372Z" fill="#FFD474"/>
<path d="M151.148 108.104C151.581 106.056 151.583 102.94 149.495 99.1558C148.986 98.2321 147.993 97.6803 146.939 97.7295L143.069 97.9095C143.085 97.283 143.083 96.648 143.052 96.0028C142.664 87.3486 138.268 80.5179 133.237 80.7437C128.204 80.9695 124.44 88.1687 124.828 96.8229C125.217 105.477 129.611 112.308 134.644 112.082C135.708 112.034 136.715 111.673 137.638 111.053C139.768 109.622 142.322 108.941 144.862 109.309C145.812 109.447 146.836 109.669 147.934 109.999C149.353 110.423 150.841 109.555 151.147 108.105L151.148 108.104Z" fill="#F9724D"/>
<g style="mix-blend-mode:multiply">
<path d="M135.885 111.878C135.885 111.878 139.137 110.058 141.099 104.581C141.099 104.581 141.426 108.036 140.41 110.564C140.41 110.564 138.244 112.189 135.885 111.876" fill="#EF92C8"/>
</g>
<path d="M139.973 79.5334C130.36 74.6808 127.914 82.8036 121.996 82.2263C116.077 81.649 114.263 76.9814 114.263 76.9814C114.263 76.9814 112.618 91.7006 125.348 90.3219C125.348 90.3219 121.906 92.8551 115.862 90.3422C115.862 90.3422 118.83 95.8163 124.801 95.5463C124.801 95.5463 126.57 90.9042 127.58 90.4356C128.588 89.967 135.981 89.388 135.981 89.388L135.985 89.8125C136.002 91.6225 136.295 93.4053 136.847 95.0998C137.492 93.8569 138.605 93.1523 139.471 93.5003C140.425 93.8841 140.714 95.3986 140.118 96.8843C139.758 97.7807 139.157 98.4582 138.527 98.7723C138.532 98.7808 138.538 98.7893 138.543 98.7978C139.459 100.343 141.588 100.609 142.845 99.3258L143.063 99.1051C143.063 99.1051 149.587 84.3877 139.975 79.5351L139.973 79.5334Z" fill="#19283F"/>
<path d="M127.585 104.854C127.125 104.854 126.706 104.784 126.421 104.608C126.063 104.385 125.947 103.918 126.154 103.543C127.315 101.453 126.913 97.9351 126.908 97.8994C126.888 97.7228 127.013 97.5615 127.191 97.5395C127.37 97.5208 127.529 97.6447 127.551 97.823C127.57 97.9758 127.982 101.587 126.721 103.857C126.68 103.932 126.697 104.019 126.762 104.058C127.217 104.34 128.609 104.185 129.503 103.864C129.671 103.805 129.856 103.891 129.917 104.059C129.977 104.227 129.89 104.413 129.722 104.474C129.153 104.677 128.317 104.854 127.585 104.854Z" fill="#19283F"/>
<path d="M170.744 83.452L192.135 77.1782C192.135 77.1782 199.952 68.4103 224.586 68.2031L224.773 71.6091L197.472 85.2433L177.837 95.8857C177.837 95.8857 170.24 94.0384 170.743 83.452H170.744Z" fill="#19283F"/>
<path d="M197.827 94.1692C191.313 101.465 182.881 112.272 180.488 121.604C180.215 122.67 180.398 123.798 181.005 124.716C182.857 127.521 188.037 133.888 200.061 140.406L211.246 140.566C211.246 140.566 208.453 127.333 199.129 122.643C199.129 122.643 228.863 107.948 228.773 96.9809C228.742 93.1419 225.937 90.6121 222.304 88.9447C213.916 85.0939 203.979 87.2842 197.829 94.1692H197.827Z" fill="#F9724D"/>
<g style="mix-blend-mode:multiply">
<path d="M197.827 94.1692C197.827 94.1692 214.749 86.1517 222.75 98.4327C222.75 98.4327 226.337 102.788 221.387 111.476C221.387 111.476 235.358 100.109 228.713 88.8599C222.066 77.6096 200.555 86.3097 197.829 94.1709" fill="#EF92C8"/>
</g>
<path d="M150.453 111.741C148.652 111.741 146.661 110.573 146.554 110.51C146.401 110.418 146.35 110.221 146.442 110.067C146.534 109.914 146.731 109.863 146.885 109.953C146.914 109.97 149.867 111.7 151.517 110.873C152.135 110.564 152.502 109.9 152.608 108.902C153.058 104.678 149.757 100.022 148.733 98.6942L149.244 98.2969L148.988 98.4938L149.246 98.2986C150.305 99.6739 153.727 104.504 153.252 108.968C153.121 110.199 152.634 111.035 151.807 111.449C151.395 111.654 150.932 111.737 150.455 111.737L150.453 111.741Z" fill="#19283F"/>
<path d="M172.691 123.22C172.557 123.22 172.43 123.135 172.385 123.001C172.328 122.833 172.419 122.65 172.587 122.592C172.64 122.573 177.291 120.852 179.94 110.993C179.986 110.822 180.164 110.718 180.336 110.766C180.509 110.812 180.611 110.99 180.563 111.162C177.81 121.4 172.998 123.135 172.794 123.203C172.761 123.215 172.725 123.22 172.691 123.22Z" fill="#19283F"/>
<path d="M163.232 105.623C162.712 105.623 162.415 105.574 162.385 105.567C162.208 105.537 162.091 105.368 162.124 105.192C162.154 105.017 162.322 104.9 162.497 104.93C162.514 104.934 164.308 105.226 167.044 104.241C171.639 102.589 175.31 98.677 177.581 95.6887C177.689 95.5461 177.891 95.5189 178.034 95.6276C178.177 95.7363 178.204 95.9383 178.095 96.0809C175.76 99.1541 171.976 103.175 167.21 104.869C165.44 105.499 164.055 105.625 163.23 105.625L163.232 105.623Z" fill="#19283F"/>
<path d="M199.127 122.966C199.091 122.966 199.054 122.959 199.018 122.947C198.967 122.928 193.855 121.123 189.547 121.845C189.37 121.874 189.204 121.755 189.175 121.58C189.146 121.404 189.265 121.237 189.44 121.208C193.917 120.458 199.021 122.261 199.237 122.339C199.405 122.398 199.491 122.584 199.432 122.752C199.384 122.884 199.261 122.966 199.128 122.966H199.127Z" fill="#19283F"/>
<path d="M130.171 97.1267C130.034 97.9349 129.589 98.5343 129.175 98.4647C128.761 98.395 128.537 97.6819 128.674 96.8737C128.812 96.0655 129.256 95.4662 129.671 95.5358C130.085 95.6054 130.309 96.3185 130.171 97.1267Z" fill="#19283F"/>
<path d="M126.551 97.5445C126.573 98.3646 126.249 99.0387 125.83 99.0488C125.411 99.059 125.054 98.4036 125.032 97.5836C125.01 96.7635 125.334 96.0894 125.754 96.0792C126.173 96.069 126.529 96.7244 126.551 97.5445Z" fill="#19283F"/>
<path d="M127.702 95.1202C127.816 95.0506 130.521 94.4444 131.482 94.8893C132.444 95.3341 131.126 93.1795 129.237 93.6957C127.347 94.2118 127.702 95.1202 127.702 95.1202Z" fill="#19283F"/>
<path d="M124.777 95.4933C125.67 95.4016 126.513 95.4169 126.581 95.439C126.581 95.439 126.719 94.5697 125.055 94.3965L124.775 95.4933H124.777Z" fill="#19283F"/>
<path d="M130.769 109.783C130.111 109.783 129.605 109.539 129.595 109.533C129.491 109.482 129.449 109.357 129.5 109.253C129.551 109.15 129.676 109.107 129.78 109.158C129.843 109.189 131.316 109.893 132.336 108.564C133.056 107.625 132.93 106.55 132.777 105.963C131.523 107.953 128.446 108.508 128.307 108.532C128.193 108.552 128.084 108.476 128.064 108.362C128.043 108.248 128.12 108.139 128.234 108.119C128.268 108.112 131.677 107.496 132.63 105.351C132.664 105.277 132.737 105.228 132.82 105.228H132.821C132.903 105.228 132.978 105.275 133.011 105.348C133.047 105.424 133.872 107.248 132.669 108.819C132.083 109.581 131.365 109.783 130.769 109.783Z" fill="#19283F"/>
<path d="M201.458 121.274C201.319 121.274 201.19 121.183 201.149 121.044C201.098 120.872 201.197 120.692 201.366 120.641C201.382 120.636 202.914 120.171 206.019 118.468C208.884 116.896 213.714 113.919 220.448 108.662C220.588 108.552 220.79 108.578 220.901 108.718C221.011 108.859 220.986 109.063 220.845 109.172C207.835 119.329 201.801 121.186 201.55 121.261C201.519 121.269 201.489 121.274 201.458 121.274Z" fill="#19283F"/>
<path d="M208.696 133.026C208.562 133.026 208.436 132.942 208.39 132.808C206.781 128.168 200.951 124.113 200.892 124.072C200.744 123.971 200.708 123.77 200.809 123.623C200.91 123.475 201.111 123.437 201.258 123.539C201.319 123.582 202.788 124.597 204.485 126.22C206.775 128.412 208.294 130.557 209.001 132.594C209.059 132.762 208.971 132.947 208.803 133.005C208.767 133.017 208.732 133.024 208.698 133.024L208.696 133.026Z" fill="#19283F"/>
<path d="M224.588 68.2031C224.588 68.2031 229.788 65.2539 231.571 65.0824C233.353 64.9109 238.947 66.7803 238.869 67.13C238.793 67.4798 238.312 69.9571 235.666 70.3781C234.434 70.5751 230.352 71.0879 230.352 71.0879C230.352 71.0879 235.052 72.8299 234.899 73.2136C234.745 73.5957 233.127 73.5159 231.937 73.1644C230.746 72.8129 224.775 71.6091 224.775 71.6091L224.588 68.2031Z" fill="#F9724D"/>
<path d="M238.55 67.8311C238.528 67.8311 238.506 67.8277 238.486 67.8175C236.344 66.9329 233.986 66.4591 231.668 66.449C231.574 66.449 231.498 66.3725 231.498 66.2792C231.498 66.1858 231.574 66.1094 231.668 66.1094C234.029 66.1196 236.43 66.6018 238.613 67.5034C238.7 67.539 238.74 67.6392 238.705 67.7258C238.678 67.792 238.615 67.8311 238.549 67.8311H238.55Z" fill="#19283F"/>
<path d="M238.023 69.1388C238.003 69.1388 237.981 69.1354 237.961 69.127C235.966 68.3306 234.031 67.8926 231.684 67.7041C231.591 67.6973 231.521 67.6141 231.528 67.5207C231.535 67.4274 231.618 67.3594 231.711 67.3645C234.094 67.5547 236.06 68.0012 238.086 68.8094C238.173 68.8434 238.215 68.9436 238.181 69.0302C238.154 69.0964 238.091 69.1371 238.023 69.1371V69.1388Z" fill="#19283F"/>
<path d="M237.024 70.0727C237.007 70.0727 236.99 70.071 236.973 70.0643C234.946 69.4326 233.733 69.3409 231.721 69.1898L231.613 69.1813C231.519 69.1746 231.45 69.0931 231.457 68.9997C231.463 68.9063 231.545 68.835 231.638 68.8435L231.747 68.852C233.782 69.0065 235.009 69.0981 237.073 69.7417C237.163 69.7688 237.212 69.8639 237.185 69.9539C237.163 70.0269 237.095 70.0727 237.022 70.0727H237.024Z" fill="#19283F"/>
<path d="M231.658 71.5871C231.641 71.5871 231.624 71.5837 231.607 71.5786C231.354 71.4988 229.22 70.9759 229.198 70.9691C229.106 70.947 229.052 70.8553 229.074 70.7636C229.096 70.6719 229.19 70.6176 229.28 70.6397C229.368 70.6617 231.447 71.1711 231.708 71.2543C231.798 71.2832 231.848 71.3783 231.819 71.4666C231.797 71.5396 231.729 71.5854 231.658 71.5854V71.5871Z" fill="#19283F"/>
<path d="M91.714 148.347C91.714 148.347 88.2261 151.19 87.868 152.079C87.5098 152.969 85.4476 159.594 85.9127 159.857C86.3777 160.121 89.886 159.007 90.0846 158.705C90.2832 158.402 92.3098 153.171 92.3098 153.171C92.3098 153.171 92.3539 157.244 92.8818 157.457C93.408 157.669 93.8866 155.718 93.8866 155.718L95.4277 150.21L91.714 148.346V148.347Z" fill="#F9724D"/>
<path d="M87.1079 159.917C87.0876 159.917 87.0672 159.915 87.0451 159.908C86.9094 159.874 86.8262 159.735 86.8601 159.599C86.9229 159.348 86.9823 159.107 87.04 158.874C87.5119 156.968 87.8531 155.591 88.7747 153.638C88.8341 153.511 88.9869 153.456 89.1142 153.516C89.2415 153.575 89.2958 153.728 89.2364 153.855C88.3368 155.762 88.0007 157.119 87.534 158.997C87.4762 159.229 87.4168 159.47 87.354 159.723C87.3252 159.839 87.2217 159.915 87.1079 159.915V159.917Z" fill="#19283F"/>
<path d="M88.4861 159.48C88.4573 159.48 88.4267 159.475 88.3979 159.465C88.2655 159.416 88.1993 159.27 88.2468 159.137C88.5286 158.377 88.7645 157.66 88.9936 156.967C89.3416 155.911 89.6709 154.913 90.141 153.792C90.1953 153.663 90.3447 153.602 90.4737 153.657C90.6027 153.711 90.6638 153.86 90.6095 153.989C90.1461 155.091 89.8202 156.079 89.4757 157.125C89.2465 157.823 89.0089 158.545 88.7237 159.314C88.6864 159.416 88.588 159.48 88.4844 159.48H88.4861Z" fill="#19283F"/>
<path d="M92.0893 154.579C92.0758 154.579 92.0639 154.579 92.0503 154.575C91.9111 154.553 91.8161 154.424 91.8381 154.285L91.9875 153.312C92.0096 153.173 92.1386 153.078 92.2777 153.1C92.4169 153.122 92.512 153.251 92.4899 153.39L92.3405 154.363C92.3219 154.489 92.2132 154.579 92.0893 154.579Z" fill="#19283F"/>
<path d="M145.623 137.075C145.623 137.075 208.98 127.608 257.54 146.528L225.244 193.249C225.244 193.249 149.293 174.253 145.623 137.075Z" fill="#FFD474"/>
<g style="mix-blend-mode:hard-light">
<path d="M152.621 142.857C152.621 142.857 216.243 132.763 258.716 148.713L225.242 193.249C225.242 193.249 162.959 176.766 152.619 142.857H152.621Z" fill="#F9724D"/>
</g>
<path d="M153.883 136.857C166.791 143.205 220.382 166.704 243.698 173.648L238.718 180.921C238.718 180.921 173.533 160.639 149.521 146.027C145.662 143.677 142.985 139.796 142.153 135.352C146.123 134.542 150.248 135.069 153.883 136.857Z" fill="#6B51B4"/>
<path d="M89.6416 211.016C113.344 242.339 150.918 262.574 193.216 262.574C264.916 262.574 323.04 204.43 323.04 132.705C308.942 125.715 293.687 121.1 278.046 119.4C265.379 118.025 251.234 118.967 241.999 127.747C234.459 134.916 231.874 145.667 228.339 155.452C224.803 165.237 218.832 175.553 208.745 178.088C200.002 180.285 191.146 175.925 182.735 172.679C174.325 169.432 163.805 167.577 157.106 173.609C152.506 177.75 151.239 184.313 149.261 190.181C145.95 200.007 138.919 209.632 128.741 211.593C116.094 214.029 100.258 203.72 89.6433 211.014L89.6416 211.016Z" fill="#3EA2FF"/>
<path d="M97.485 209.909C92.2743 208.262 86.59 211.573 83.4652 216.058C80.3405 220.543 79.0675 226.013 77.2684 231.175C75.4675 236.336 72.8062 241.607 68.0452 244.291C62.9211 247.179 56.6224 246.427 50.7684 245.872C41.4366 244.986 31.8943 244.836 22.8222 247.196C13.7501 249.556 5.11763 254.66 0.00195312 262.518L193.22 262.576V233.122L97.4884 209.909H97.485Z" fill="#3EA2FF"/>
<path d="M160.054 51.9387C159.633 51.9387 159.209 51.886 158.783 51.7672C157.669 51.4565 156.736 50.7196 155.969 50.0404C154.2 48.4732 152.596 46.6157 151.045 44.8177C147.803 41.0602 144.741 37.5116 140.24 36.2738C136.103 35.1362 131.086 36.4096 127.147 39.5983C125.609 40.8429 124.236 42.337 122.907 43.7802C121.734 45.0554 120.52 46.3746 119.186 47.536C117.805 48.7381 114.546 51.1678 110.822 51.1678C110.084 51.1678 109.327 51.0727 108.563 50.852C106.171 50.1644 104.349 48.4257 102.585 46.7448C101.214 45.4374 99.7964 44.0859 98.1313 43.2539C97.9565 43.1673 97.8852 42.9551 97.9734 42.7802C98.06 42.6053 98.2739 42.534 98.447 42.6223C100.207 43.5001 101.663 44.8907 103.074 46.2337C104.854 47.9316 106.535 49.5344 108.76 50.1728C113.046 51.4055 117.156 48.3663 118.725 47.0012C120.03 45.867 121.228 44.563 122.389 43.3014C123.733 41.8378 125.125 40.325 126.704 39.0482C130.879 35.6694 136.01 34.3773 140.428 35.5913C145.136 36.8868 148.412 40.6833 151.581 44.3541C153.117 46.1335 154.706 47.9741 156.437 49.5107C157.143 50.1372 157.997 50.8129 158.973 51.0846C160.999 51.65 163.04 50.4836 165.012 49.3545C165.238 49.2254 165.463 49.0964 165.686 48.9724C168.3 47.5088 172.225 45.979 176.078 47.0079C176.267 47.0589 176.379 47.2524 176.328 47.4409C176.277 47.6294 176.083 47.7414 175.895 47.6905C172.271 46.7227 168.53 48.1897 166.03 49.5888C165.81 49.7127 165.587 49.84 165.362 49.9691C163.729 50.9029 161.919 51.937 160.052 51.937L160.054 51.9387Z" fill="#19283F"/>
<path d="M71.6433 87.4094C71.4957 87.4094 71.3582 87.316 71.309 87.17C71.2462 86.9849 71.3446 86.7845 71.5296 86.7217L119.4 70.4711C119.585 70.4083 119.786 70.5068 119.849 70.6918C119.911 70.8769 119.813 71.0772 119.628 71.1401L71.7571 87.3907C71.7197 87.4043 71.6807 87.4094 71.6433 87.4094Z" fill="#19283F"/>
<path d="M129.386 68.0145C129.237 68.0145 129.098 67.9178 129.05 67.7683C128.991 67.5816 129.094 67.3829 129.279 67.3252L159.564 57.6828C159.751 57.6234 159.949 57.7269 160.007 57.912C160.067 58.0988 159.963 58.2974 159.778 58.3552L129.493 67.9976C129.457 68.0094 129.422 68.0145 129.386 68.0145Z" fill="#19283F"/>
<path d="M167.938 55.7401C167.788 55.7401 167.649 55.6433 167.602 55.4939C167.542 55.3071 167.646 55.1084 167.831 55.0507L184.283 49.8127C184.47 49.7533 184.668 49.8568 184.726 50.0419C184.785 50.2287 184.682 50.4273 184.497 50.485L168.045 55.7231C168.009 55.735 167.973 55.7401 167.938 55.7401Z" fill="#19283F"/>
<path d="M248.206 85.328C248.152 85.328 248.097 85.3161 248.045 85.289C247.872 85.2007 247.802 84.9867 247.892 84.8136C250.463 79.7895 253.508 74.9708 256.942 70.4918C257.959 69.164 259.072 67.7819 260.511 66.7394C262.991 64.9413 266.289 64.1942 270.89 64.3895C271.084 64.398 271.279 64.4065 271.474 64.415C274.183 64.5389 276.984 64.6662 278.881 62.9921C279.915 62.0803 280.501 60.7441 280.969 59.5641C282.736 55.1138 283.78 50.4344 284.072 45.6548C284.084 45.4596 284.253 45.3136 284.445 45.3237C284.64 45.3356 284.788 45.5037 284.776 45.699C284.479 50.5533 283.418 55.3057 281.624 59.8255C281.125 61.082 280.497 62.5082 279.346 63.5236C277.233 65.3879 274.156 65.2469 271.439 65.123C271.243 65.1145 271.05 65.106 270.856 65.0975C266.425 64.9107 263.266 65.6154 260.92 67.315C259.559 68.3015 258.483 69.6394 257.497 70.9247C254.089 75.3698 251.068 80.1528 248.515 85.1396C248.452 85.2618 248.328 85.3314 248.201 85.3314L248.206 85.328Z" fill="#19283F"/>
<path d="M257.539 81.837C257.389 81.837 257.25 81.742 257.202 81.5925C257.143 81.4075 257.245 81.2071 257.43 81.1477L304.685 65.9447C304.871 65.8853 305.07 65.9871 305.129 66.1722C305.189 66.3573 305.087 66.5576 304.902 66.617L257.647 81.8201C257.612 81.832 257.574 81.837 257.539 81.837Z" fill="#19283F"/>
<path d="M86.4965 203.794C86.3964 203.794 86.2962 203.752 86.2267 203.669C76.9899 192.732 69.7815 180.417 64.8033 167.065C59.6502 153.244 57.0381 138.69 57.0381 123.804C57.0381 107.09 60.3105 90.8768 66.7636 75.6127C72.9979 60.8698 81.9206 47.6296 93.2874 36.2604C104.654 24.8896 117.89 15.9637 132.626 9.72728C147.883 3.27356 164.092 0 180.799 0C211.63 0 241.17 11.4099 263.977 32.1294C286.626 52.7046 300.809 80.7302 303.911 111.043C303.932 111.236 303.791 111.411 303.595 111.43C303.399 111.45 303.227 111.308 303.209 111.114C300.123 80.9764 286.022 53.1104 263.502 32.6524C240.826 12.0517 211.456 0.706327 180.799 0.706327C164.186 0.706327 148.071 3.96121 132.901 10.3793C118.248 16.58 105.087 25.455 93.7864 36.7613C82.4858 48.0659 73.6123 61.2315 67.4137 75.8895C60.9962 91.0653 57.7442 107.187 57.7442 123.806C57.7442 138.607 60.341 153.078 65.4652 166.819C70.4146 180.095 77.5823 192.34 86.7664 203.213C86.892 203.363 86.8733 203.585 86.724 203.711C86.6578 203.767 86.5763 203.794 86.4965 203.794Z" fill="#19283F"/>
<path d="M11.3484 252.714C11.2058 252.714 11.0717 252.628 11.0174 252.487C10.9478 252.305 11.0395 252.1 11.2228 252.032C22.8867 247.609 35.6402 245.481 48.1069 245.884C48.6704 245.902 49.2424 245.921 49.8178 245.941C58.8984 246.262 69.1926 246.625 74.2913 239.506C76.5334 236.375 77.1954 232.348 77.8352 228.453C78.5583 224.055 79.3051 219.51 82.3297 216.208C87.0397 211.065 94.8881 211.2 102.669 212.112L120.891 214.248C124.784 214.705 129.196 215.221 133.086 213.69C138.061 211.73 141.713 206.747 144.249 198.456C144.583 197.366 144.904 196.239 145.217 195.148C146.734 189.836 148.302 184.341 151.984 180.173C155.784 175.869 161.239 173.493 168.198 173.111C175.298 172.723 182.304 174.51 186.933 176.079C187.607 176.309 188.282 176.543 188.961 176.779C194.187 178.596 199.593 180.475 204.972 179.587C209.724 178.803 213.935 176.001 217.486 171.259C220.351 167.434 222.727 162.46 224.547 156.48C224.954 155.144 225.355 153.76 225.744 152.422C228.427 143.181 231.202 133.625 238.68 127.769C243.755 123.794 250.645 121.809 260.363 121.522C269.571 121.251 279.251 122.254 289.956 124.594C298.381 126.436 307.241 129.029 318.685 133.004C318.87 133.068 318.966 133.268 318.902 133.454C318.837 133.639 318.637 133.735 318.452 133.671C307.036 129.706 298.202 127.119 289.805 125.283C279.158 122.955 269.536 121.957 260.384 122.227C250.825 122.511 244.066 124.446 239.117 128.324C231.816 134.041 229.074 143.485 226.422 152.619C226.034 153.961 225.63 155.346 225.222 156.686C223.377 162.746 220.966 167.79 218.05 171.683C214.385 176.577 210.023 179.47 205.084 180.285C199.527 181.202 194.036 179.293 188.727 177.446C188.05 177.21 187.376 176.976 186.704 176.748C182.135 175.2 175.222 173.432 168.234 173.818C161.472 174.188 156.181 176.483 152.51 180.642C148.934 184.691 147.387 190.106 145.892 195.344C145.58 196.437 145.257 197.568 144.921 198.665C142.318 207.176 138.529 212.306 133.341 214.35C129.286 215.948 124.779 215.42 120.804 214.953L102.582 212.817C89.7317 211.311 85.502 213.788 82.8457 216.688C79.9637 219.836 79.2661 224.079 78.5277 228.572C77.8743 232.546 77.1987 236.655 74.8599 239.922C69.5405 247.351 59.0461 246.98 49.7873 246.653C49.2119 246.632 48.6416 246.612 48.0781 246.595C35.7047 246.201 23.0445 248.31 11.4672 252.699C11.4265 252.714 11.384 252.723 11.3416 252.723L11.3484 252.714Z" fill="#19283F"/>
<path d="M405.645 263H227.299C227.065 263 226.875 262.81 226.875 262.576C226.875 262.342 227.065 262.151 227.299 262.151H405.645C405.88 262.151 406.07 262.342 406.07 262.576C406.07 262.81 405.88 263 405.645 263Z" fill="#19283F"/>
<path d="M405.646 263C405.615 263 405.583 262.997 405.553 262.99C405.323 262.939 405.181 262.712 405.232 262.482C407.213 253.672 407.671 243.552 406.559 233.221C405.451 222.913 402.857 213.118 399.06 204.895C392.095 189.809 380.855 175.091 365.656 161.155C353.102 149.645 341.863 142.369 330.287 138.259C330.067 138.181 329.951 137.938 330.029 137.717C330.107 137.496 330.35 137.381 330.571 137.459C342.258 141.609 353.59 148.939 366.229 160.53C373.472 167.171 379.866 174.027 385.236 180.907C391.219 188.574 396.131 196.526 399.831 204.54C403.665 212.844 406.284 222.731 407.403 233.131C408.525 243.554 408.06 253.769 406.058 262.669C406.014 262.866 405.839 263 405.644 263H405.646Z" fill="#19283F"/>
<path d="M63.5573 257.574C62.5084 257.574 61.434 257.448 60.3308 257.173C60.1033 257.117 59.9641 256.886 60.0218 256.659C60.0779 256.431 60.3087 256.292 60.5361 256.35C67.1845 258.007 72.8348 253.833 78.8178 249.414C82.3737 246.787 86.0517 244.07 90.0421 242.573C96.5105 240.146 103.6 241.075 110.456 241.973C117.375 242.88 124.53 243.817 130.891 241.22C137.699 238.438 142.02 232.472 146.595 226.156C150.607 220.617 154.755 214.89 160.721 211.601C168.977 207.053 178.619 208.156 187.943 209.224C194.759 210.005 201.808 210.812 208.393 209.474C222.237 206.662 232.348 195.028 241.209 182.875C241.591 182.352 241.973 181.827 242.355 181.301C250.675 169.863 259.279 158.038 272.302 152.893C283.046 148.648 296.273 149.572 308.592 155.428C321.069 161.357 331.07 171.448 337.508 178.521C347.106 189.068 355.703 200.669 363.057 212.999C370.411 225.329 376.535 238.404 381.257 251.862C381.335 252.083 381.218 252.326 380.998 252.404C380.775 252.482 380.534 252.365 380.456 252.144C375.753 238.739 369.654 225.714 362.327 213.433C355.002 201.152 346.439 189.598 336.88 179.093C323.539 164.434 314.139 159.004 308.227 156.195C296.12 150.441 283.139 149.526 272.613 153.684C259.818 158.739 251.29 170.463 243.039 181.803C242.655 182.329 242.273 182.854 241.892 183.379C232.928 195.67 222.687 207.44 208.558 210.309C201.84 211.674 194.723 210.859 187.841 210.07C178.226 208.97 169.143 207.929 161.125 212.347C155.326 215.542 151.233 221.193 147.277 226.655C142.833 232.789 138.239 239.134 131.207 242.006C124.637 244.69 117.369 243.738 110.34 242.816C103.588 241.931 96.6056 241.016 90.3357 243.367C86.4557 244.822 82.8268 247.503 79.3168 250.096C74.1332 253.925 69.1924 257.574 63.5539 257.574H63.5573Z" fill="#19283F"/>
<path d="M136.202 255.049C135.988 255.049 135.803 254.888 135.781 254.669C135.755 254.436 135.925 254.227 136.158 254.202C143.953 253.375 150.238 248.779 156.892 243.913C161.373 240.636 166.006 237.245 171.132 235.138C180.318 231.362 190.565 231.873 200.474 232.368C210.522 232.871 220.911 233.389 230.051 229.373C239.447 225.246 246.199 216.941 252.729 208.91C253.986 207.363 255.286 205.764 256.58 204.227C261.325 198.589 265.876 194.385 270.493 191.374C276.297 187.588 282.138 185.82 287.854 186.126C297.556 186.641 305.78 193.008 312.543 199.168C329.508 214.617 343.519 232.752 354.188 253.068C354.297 253.275 354.217 253.531 354.01 253.642C353.803 253.75 353.547 253.67 353.437 253.463C342.813 233.236 328.861 215.179 311.971 199.796C305.318 193.736 297.246 187.476 287.809 186.975C282.277 186.681 276.606 188.401 270.954 192.087C266.409 195.052 261.92 199.202 257.228 204.776C255.94 206.307 254.641 207.903 253.385 209.447C246.793 217.556 239.975 225.942 230.39 230.153C221.067 234.248 210.576 233.725 200.43 233.217C190.614 232.727 180.466 232.221 171.453 235.926C166.422 237.994 161.831 241.352 157.391 244.6C150.939 249.319 144.267 254.198 136.244 255.049C136.229 255.049 136.214 255.051 136.198 255.051L136.202 255.049Z" fill="#19283F"/>
<path d="M162.197 256.195C162.042 256.195 161.893 256.11 161.818 255.964C161.711 255.755 161.794 255.499 162.003 255.394C174.694 248.909 189.511 250.181 203.84 251.412C204.5 251.468 205.157 251.526 205.814 251.58C221.059 252.872 236.747 252.879 248.228 244.259C253.077 240.617 256.813 235.635 260.425 230.818C262.341 228.261 264.324 225.619 266.46 223.186C268.952 220.351 271.664 218.089 274.304 216.649C277.607 214.848 280.835 214.265 283.899 214.921C288.003 215.799 291.219 218.811 293.911 221.566C302.767 230.626 310.351 240.851 316.449 251.959C316.562 252.164 316.487 252.422 316.281 252.534C316.076 252.648 315.818 252.572 315.706 252.366C309.645 241.327 302.107 231.165 293.305 222.159C290.698 219.493 287.594 216.58 283.722 215.751C276.69 214.247 270.29 220.115 267.1 223.745C264.985 226.152 263.013 228.782 261.107 231.326C257.458 236.192 253.687 241.223 248.741 244.936C237.033 253.728 221.158 253.73 205.744 252.426C205.088 252.37 204.429 252.314 203.769 252.256C189.559 251.035 174.865 249.774 162.39 256.148C162.329 256.18 162.263 256.193 162.197 256.193V256.195Z" fill="#19283F"/>
</svg>
