<svg id="레이어_1" data-name="레이어 1" xmlns="http://www.w3.org/2000/svg" viewBox="0 0 128 128"><defs><style>.cls-1{fill:#3ea2ff;}</style></defs><path class="cls-1" d="M112,77.54A1.7,1.7,0,0,0,111,76l-.1,0-.16,0a1.58,1.58,0,0,0-.93,0l-.07,0-.31.14-.16.07a11.42,11.42,0,0,1-5.78,2.1c-3,0-4.2-2.53-4.61-4.14-.06-.21-.1-.41-.14-.59a7,7,0,0,1-.1-.71c-.64-3.81.57-8.55,1.69-11.84a1.13,1.13,0,0,0-1.79-1.24L81.23,73.83h0c-4.09,3.28-7,4.41-9,4.41-3,0-4.19-2.52-4.61-4.13-.06-.22-.1-.42-.13-.59a6.18,6.18,0,0,1-.11-.72c-.64-3.81.57-8.55,1.69-11.85a1.13,1.13,0,0,0-1.79-1.23L49.88,73.92c-12.81,10.13-13.59-1.23-13.59-1.23S36.44,62,44.23,47.27C50.51,35.39,27,35.59,18.28,36.93a2.83,2.83,0,0,0-1.29.55,2.74,2.74,0,0,0,.16,4.34l4.49,3.31s-5.08,19.2-3.84,35.79a10.17,10.17,0,0,0,.08,1.1c0,.12,0,.25,0,.38l0-.07a11.51,11.51,0,0,0,2,5.14c8.28,11.57,25-4.42,29.05-8.57v.17a15.58,15.58,0,0,0,0,2.16l0,.36c0,.3.06.6.1.89a12.16,12.16,0,0,0,.24,1.23c0,.22.12.42.18.63s.11.37.17.54.19.49.29.73l.19.43c.11.22.22.44.34.65s.22.37.34.54.24.38.37.56l.13.17c.22.28.44.54.67.79l.37.38a1.59,1.59,0,0,1,.13.13c8.8,8.25,24.27-6.82,27.75-10.44l0,.23a15.72,15.72,0,0,0,0,2.17l0,.36c0,.3,0,.59.1.89s.14.82.23,1.23c.06.21.13.42.19.63a5.6,5.6,0,0,0,.17.54,6.37,6.37,0,0,0,.29.72c.06.15.12.29.19.43s.22.44.34.66.22.36.34.54.24.37.37.55l.13.17c.22.29.44.55.67.8s.24.26.37.38l.13.12c9,8.42,24.89-7.42,27.93-10.63h0A1.68,1.68,0,0,0,112,77.54Z"/></svg>